<?xml version="1.0" encoding="utf-8"?>
<!-- Generator: Adobe Illustrator 23.0.6, SVG Export Plug-In . SVG Version: 6.00 Build 0)  -->
<svg version="1.1" id="Calque_1" xmlns="http://www.w3.org/2000/svg" xmlns:xlink="http://www.w3.org/1999/xlink" x="0px" y="0px"
	 viewBox="0 0 4000 751.3" style="enable-background:new 0 0 4000 751.3;" xml:space="preserve">
<style type="text/css">
	.st0{fill:#555555;}
	.st1{fill:url(#SVGID_1_);}
	.st2{fill:#FFFFFF;}
	.st3{opacity:0.1;fill:#5D64AE;enable-background:new    ;}
	.st4{fill:url(#SVGID_2_);}
	.st5{fill:url(#SVGID_3_);}
	.st6{fill:url(#SVGID_4_);}
	.st7{fill:url(#SVGID_5_);}
	.st8{opacity:0.15;fill:#5D64AE;enable-background:new    ;}
	.st9{fill:url(#SVGID_6_);}
</style>
<title>Classcraft_Logo_RVB</title>
<g>
	<path class="st0" d="M1234.6,137.5c60.6,0,114.5,21.5,154.2,57.9c12.1,10.8,14.1,30.3,3.4,43.8c-11.4,13-31.2,14.5-44.4,3.4
		c-30.3-26.9-68.7-44.4-113.1-44.4c-97,0-172.4,79.5-172.4,177.8s75.4,177.1,172.4,177.1c44.4,0,82.8-17.5,113.1-44.4
		c13.3-11.2,33-9.6,44.5,3.4c10.8,13.5,8.8,33-3.4,43.8c-39.7,36.4-93.6,57.9-154.2,57.9c-131.3,0-235.1-106.4-235.1-238.4
		S1103.2,137.5,1234.6,137.5z"/>
	<path class="st0" d="M1539.6,579.4c0,17.1-13.8,30.9-30.8,31c-0.1,0-0.1,0-0.2,0c-16.8,0-30.3-14.1-30.3-31V168.5
		c0-16.8,13.5-31,30.3-31c17.1,0,30.9,13.8,31,30.8c0,0.1,0,0.1,0,0.2V579.4z"/>
	<path class="st0" d="M1880.4,558.5c-20.9,35.7-66.7,55.2-110.4,55.2c-86.2,0-159.6-64.6-159.6-164.3
		c0-100.4,73.4-163.7,159.6-163.7c43.8,0,89.6,18.2,110.4,53.9v-19.5c0-16.8,13.5-31,30.3-31c17.1,0,30.9,13.8,31,30.8
		c0,0,0,0.1,0,0.1v259.3c0,17.1-13.8,30.9-30.8,31c-0.1,0-0.1,0-0.2,0c-16.8,0-30.3-14.1-30.3-31L1880.4,558.5z M1775.4,345.7
		c-56.6,0-102.4,40.4-102.4,103c0,62,45.8,105.1,102.4,105.1c55.9,0,104.4-38.4,104.4-105.1C1879.8,381.4,1825.9,345.7,1775.4,345.7
		L1775.4,345.7z"/>
	<path class="st0" d="M2130.4,559.8c31.6,0,55.2-16.8,55.2-41.8c0-22.9-18.2-34.3-41.8-39.7l-43.1-10.1
		c-53.2-14.1-84.9-40.4-84.9-90.3c0-51.9,46.5-92.3,109.8-92.3c41.1,0,80.8,14.8,99,51.2c2.3,4.4,3.5,9.2,3.4,14.1
		c0,20.2-19.5,27.6-29,27.6c-8.8,0-15.5-4.7-22.2-13.5c-14.1-18.9-30.3-26.3-49.8-26.3c-29.6,0-49.2,17.5-49.2,41.1
		c0,20.2,19.5,31.6,39.7,36.4l46.5,11.5c65.3,16.2,81.5,55.9,81.5,91.6c0,58.6-56.6,94.3-121.9,94.3c-48.5,0-98.3-26.9-113.1-75.4
		c-0.7-3.1-1.2-6.3-1.3-9.5c0-16.2,15.5-24.3,29.6-24.3c10.8,0,21.5,5.4,26.3,17.5C2073.9,545,2098.8,559.8,2130.4,559.8z"/>
	<path class="st0" d="M2422,559.8c31.7,0,55.2-16.8,55.2-41.8c0-22.9-18.2-34.3-41.8-39.7l-43.1-10.1
		c-53.2-14.1-84.9-40.4-84.9-90.3c0-51.9,46.5-92.3,109.8-92.3c41.1,0,80.8,14.8,99,51.2c2.3,4.4,3.5,9.2,3.4,14.1
		c0,20.2-19.5,27.6-29,27.6c-8.8,0-15.5-4.7-22.2-13.5c-14.1-18.9-30.3-26.3-49.8-26.3c-29.6,0-49.2,17.5-49.2,41.1
		c0,20.2,19.5,31.6,39.7,36.4l46.5,11.5c65.3,16.2,81.5,55.9,81.5,91.6c0,58.6-56.6,94.3-121.9,94.3c-48.5,0-98.3-26.9-113.1-75.4
		c-0.7-3.1-1.2-6.3-1.3-9.5c0-16.2,15.5-24.3,29.6-24.3c10.8,0,21.6,5.4,26.3,17.5C2365.5,545,2390.3,559.8,2422,559.8z"/>
	<path class="st0" d="M2756,554.4c21.5,0.2,42.4-6.4,59.9-18.8c14.8-9.5,31.6-10.1,43.1,2.7c11.4,12.8,10.1,34.3-3.4,43.8
		c-27.6,20.2-62,31.7-99.7,31.7c-89.6,0-166.4-65.3-166.4-165c0.7-98.3,77.5-163,166.4-163c37.7,0,71.4,12.1,99.7,31.6
		c13.5,9.5,14.8,31,3.4,43.8c-10.1,10.8-29,12.8-43.1,2.7c-17.5-12.4-38.5-19.1-59.9-18.9c-56.6,0-106.4,42.4-106.4,105.7
		C2650.9,512.7,2700.1,554.4,2756,554.4z"/>
	<path class="st0" d="M3086.1,344.3c-60.6,0-86.2,64.7-86.2,148.1v86.9c0.1,17.1-13.7,30.9-30.8,31c-0.1,0-0.1,0-0.2,0
		c-16.8,0-30.3-14.1-30.3-31V320.1c0-16.8,13.5-31,30.3-31c17.1,0,30.9,13.7,31,30.8c0,0.1,0,0.1,0,0.2v43.1
		c16.2-55.2,46.5-77.4,87.6-77.4c22.9,0,60.6,4.7,55.2,37.7c-3.4,19.5-20.9,23.6-42.4,21.6C3095.6,344.4,3090.9,344.2,3086.1,344.3z
		"/>
	<path class="st0" d="M3665.1,579.4c0,17.1-13.8,30.9-30.8,31c-0.1,0-0.1,0-0.2,0c-16.8,0-30.3-14.1-30.3-31V344.3h-33.4
		c-14.5,0-26.3-11.8-26.3-26.3l0,0c0-14.2,12.1-25.6,26.3-25.6h33.4v-15c0-82.8,35.7-139.4,120.6-139.4h8.7
		c16.2-0.1,29.5,12.9,29.6,29.2c0,0.1,0,0.3,0,0.4c0,16.2-13.5,29-29.6,29h-8.8c-50.5,0-59.9,40.4-59.3,80.8v15h53.4
		c14.5,0,26.3,11.8,26.3,26.3l0,0c0,14.1-12.1,25.6-26.3,25.6h-53.3V579.4z"/>
	<path class="st0" d="M4000,580.5c0.1,16.2-13,29.5-29.2,29.6c-0.1,0-0.3,0-0.4,0h-8.7c-25.7,0-46.8-5.3-63.9-14.7
		c-39.3-22-56.6-67-56.6-124.6V344.4h-33.6c-14.5-0.1-26.1-11.8-26.1-26.3c0-14.1,12.1-25.5,26.1-25.5h33.6v-90.8
		c0-16.8,13.5-31,30.3-31c17.1,0,30.9,13.9,30.9,31c0,0,0,0,0,0.1v90.8h53.3c14.5,0,26.2,11.7,26.3,26.1c0,14.2-12.2,25.7-26.3,25.7
		h-53.3v130.5c0,38.9,10.4,76.6,59.2,76.6h8.7C3986.6,551.5,4000,564.3,4000,580.5z"/>
	<path class="st0" d="M3429.9,558.5c-20.9,35.7-66.7,55.2-110.4,55.2c-86.2,0-159.6-64.6-159.6-164.3
		c0-100.4,73.4-163.7,159.6-163.7c43.8,0,89.6,18.2,110.4,53.9v-19.5c0-16.8,13.5-31,30.3-31c17.1,0,30.9,13.8,31,30.8
		c0,0.1,0,0.1,0,0.2v259.3c0,17.1-13.8,30.9-30.8,31c-0.1,0-0.1,0-0.2,0c-16.8,0-30.3-14.1-30.3-31V558.5z M3324.9,345.7
		c-56.6,0-102.4,40.4-102.4,103c0,62,45.8,105.1,102.4,105.1c55.9,0,104.4-38.4,104.4-105.1C3429.3,381.4,3375.4,345.7,3324.9,345.7
		L3324.9,345.7z"/>
</g>
<g>
	
		<linearGradient id="SVGID_1_" gradientUnits="userSpaceOnUse" x1="542.0024" y1="624.3928" x2="542.0024" y2="156.7479" gradientTransform="matrix(1 0 0 -1 0 908)">
		<stop  offset="0.3" style="stop-color:#FFE632"/>
		<stop  offset="0.8" style="stop-color:#FF643C"/>
	</linearGradient>
	<path class="st1" d="M738.9,471.5L738.9,471.5c-43.6,164.9-192.7,279.7-363.3,279.7c-10.3,0-20.5-0.4-30.5-1.2l258.2-456.2
		c5.5-9.7,17.7-13.1,27.4-7.6c3.2,1.8,5.8,4.4,7.6,7.6L738.9,471.5z"/>
	<path class="st2" d="M687.9,381.4l-33.5,33.5l-33.5-33.5l-33.5,33.5l-33.5-33.5l49.6-87.5c5.5-9.7,17.7-13.1,27.4-7.6
		c3.2,1.8,5.8,4.4,7.6,7.6L687.9,381.4z"/>
	<path class="st3" d="M738.9,471.5c-19.4,73.4-60.6,139.2-118.1,188.7V283.6c7.3,0,14,3.9,17.5,10.2l49.6,87.5L738.9,471.5z"/>
	
		<linearGradient id="SVGID_2_" gradientUnits="userSpaceOnUse" x1="209.25" y1="625.436" x2="209.25" y2="157.7829" gradientTransform="matrix(1 0 0 -1 0 908)">
		<stop  offset="0.3" style="stop-color:#FFE632"/>
		<stop  offset="0.8" style="stop-color:#FF643C"/>
	</linearGradient>
	<path class="st4" d="M406.1,750c-10.1,0.8-20.2,1.2-30.5,1.2c-174.3,0-320.9-118.7-363.3-279.8l100.6-177.7
		c5.5-9.7,17.7-13.1,27.4-7.6c3.2,1.8,5.8,4.4,7.6,7.6L406.1,750z"/>
	<path class="st2" d="M197.4,381.2L164,414.6l-33.5-33.5l-33.5,33.5l-33.4-33.4l49.5-87.4c5.5-9.7,17.7-13.1,27.4-7.6
		c3.2,1.8,5.8,4.4,7.6,7.6L197.4,381.2z"/>
	<path class="st3" d="M406.1,750.1c-10,0.8-20.1,1.2-30.3,1.2c-90.1,0.1-177.3-32.3-245.4-91.3V283.6c7.3,0,14,3.9,17.5,10.2
		L406.1,750.1z"/>
	
		<linearGradient id="SVGID_3_" gradientUnits="userSpaceOnUse" x1="226.6449" y1="580.5869" x2="508.9167" y2="424.1136" gradientTransform="matrix(1 0 0 -1 0 908)">
		<stop  offset="0" style="stop-color:#1D1D1B;stop-opacity:0"/>
		<stop  offset="0.6" style="stop-color:#000000"/>
	</linearGradient>
	<path class="st5" d="M413.2,51.4v605.2c-12.4,1.2-242.1,49.4-310.6-23c-9.8-10.3-19-21.2-27.5-32.6L372.7,75
		C380.9,60.3,396.4,51.3,413.2,51.4z"/>
	
		<linearGradient id="SVGID_4_" gradientUnits="userSpaceOnUse" x1="5979.0752" y1="580.5886" x2="6261.3467" y2="424.1154" gradientTransform="matrix(-1 0 0 -1 6503.6899 908)">
		<stop  offset="0" style="stop-color:#1D1D1B;stop-opacity:0"/>
		<stop  offset="0.6" style="stop-color:#000000"/>
	</linearGradient>
	<path class="st6" d="M338.1,51.4v605.2c12.4,1.2,242.1,49.4,310.6-23c9.8-10.3,19-21.2,27.6-32.6L378.5,75
		C370.4,60.3,354.9,51.3,338.1,51.4z"/>
	
		<linearGradient id="SVGID_5_" gradientUnits="userSpaceOnUse" x1="380.3859" y1="722.0582" x2="374.3683" y2="156.1345" gradientTransform="matrix(1 0 0 -1 0 908)">
		<stop  offset="0.15" style="stop-color:#FFE632"/>
		<stop  offset="0.28" style="stop-color:#FFE030"/>
		<stop  offset="0.45" style="stop-color:#FFCE2B"/>
		<stop  offset="0.65" style="stop-color:#FFB123"/>
		<stop  offset="0.86" style="stop-color:#FF8917"/>
		<stop  offset="1" style="stop-color:#FF6C0F"/>
	</linearGradient>
	<path class="st7" d="M648.7,633.6c-8.8,9.3-18.1,18.2-27.9,26.6c-152.1,131.1-380.4,119.3-518.3-26.6l245.1-433
		c12.3-21.8,43.7-21.8,56,0L648.7,633.6z"/>
	<path class="st2" d="M474.5,325.8L425,375.3l-49.4-49.4l-49.4,49.4l-49.5-49.5l70.9-125.3c12.3-21.8,43.7-21.8,56,0L474.5,325.8z"
		/>
	<path class="st8" d="M648.7,633.6C577.8,708.8,479,751.4,375.6,751.3v-567c11.6-0.1,22.4,6.1,28,16.3L648.7,633.6z"/>
	
		<linearGradient id="SVGID_6_" gradientUnits="userSpaceOnUse" x1="378.7156" y1="822.5096" x2="373.6264" y2="343.7341" gradientTransform="matrix(1 0 0 -1 0 908)">
		<stop  offset="0" style="stop-color:#2979FF"/>
		<stop  offset="0.6" style="stop-color:#10CCE5"/>
		<stop  offset="1" style="stop-color:#00FFD5"/>
	</linearGradient>
	<path class="st9" d="M751.3,375.6c0,32.4-4.1,64.6-12.3,95.9L638.3,293.8c-5.5-9.7-17.7-13.1-27.4-7.6c-3.2,1.8-5.8,4.4-7.6,7.6
		l-73.5,129.8l-126.2-223c-12.3-21.8-43.7-21.8-56,0l-126.3,223l-73.5-129.8c-5.5-9.7-17.7-13.1-27.4-7.6c-3.2,1.8-5.8,4.4-7.6,7.6
		L12.4,471.5C4.1,440.2,0,408,0,375.6C0,168.2,168.2,0,375.6,0S751.3,168.2,751.3,375.6z"/>
</g>
</svg>
