<?xml version="1.0" encoding="UTF-8" standalone="no"?>
<svg
   xmlns:dc="http://purl.org/dc/elements/1.1/"
   xmlns:cc="http://creativecommons.org/ns#"
   xmlns:rdf="http://www.w3.org/1999/02/22-rdf-syntax-ns#"
   xmlns:svg="http://www.w3.org/2000/svg"
   xmlns="http://www.w3.org/2000/svg"
   xmlns:sodipodi="http://sodipodi.sourceforge.net/DTD/sodipodi-0.dtd"
   xmlns:inkscape="http://www.inkscape.org/namespaces/inkscape"
   version="1.1"
   x="0px"
   y="0px"
   viewBox="0 0 512 640"
   enable-background="new 0 0 512 512"
   xml:space="preserve"
   id="svg14"
   sodipodi:docname="noun_Picture_800093.svg"
   inkscape:version="0.92.5 (2060ec1f9f, 2020-04-08)"><metadata
     id="metadata20"><rdf:RDF><cc:Work
         rdf:about=""><dc:format>image/svg+xml</dc:format><dc:type
           rdf:resource="http://purl.org/dc/dcmitype/StillImage" /><dc:title></dc:title></cc:Work></rdf:RDF></metadata><defs
     id="defs18" /><sodipodi:namedview
     pagecolor="#ffffff"
     bordercolor="#666666"
     borderopacity="1"
     objecttolerance="10"
     gridtolerance="10"
     guidetolerance="10"
     inkscape:pageopacity="0"
     inkscape:pageshadow="2"
     inkscape:window-width="1837"
     inkscape:window-height="966"
     id="namedview16"
     showgrid="false"
     inkscape:pagecheckerboard="true"
     inkscape:zoom="1.0429825"
     inkscape:cx="146.97549"
     inkscape:cy="361.76608"
     inkscape:window-x="78"
     inkscape:window-y="27"
     inkscape:window-maximized="0"
     inkscape:current-layer="svg14" /><g
     id="g8"
     style="fill:#ffffff;fill-opacity:1"><path
       d="M484.6,52.8H27.4C13.4,52.8,2,64.2,2,78.2v355.6c0,14,11.4,25.4,25.4,25.4h457.2c14,0,25.4-11.4,25.4-25.4V78.2   C510,64.2,498.6,52.8,484.6,52.8z M459.2,408.4H52.8V103.6h406.4V408.4z"
       id="path2"
       style="fill:#ffffff;fill-opacity:1" /><path
       d="M433.8,377.9v-45.1c-0.1-0.5-0.3-1.3-0.4-1.8l-45.8-91.4c-1.9-3.7-7.2-3.7-9.1,0l-20.9,41.7l-46.3-92.5   c-1.9-3.7-7.2-3.7-9.1,0l-67.7,135.5c-1.7,3.5-6.6,3.8-8.8,0.5L158.4,262c-1.9-2.9-6.2-3-8.3-0.2l-71.9,95.9V383h350.5   C431.5,383,433.8,380.7,433.8,377.9z"
       id="path4"
       style="fill:#ffffff;fill-opacity:1" /><path
       d="M141.7,205.2c21,0,38.1-17.1,38.1-38.1c0-21-17.1-38.1-38.1-38.1c-21,0-38.1,17.1-38.1,38.1   C103.6,188.1,120.7,205.2,141.7,205.2z"
       id="path6"
       style="fill:#ffffff;fill-opacity:1" /></g><text
     x="0"
     y="527"
     fill="#000000"
     font-size="5px"
     font-weight="bold"
     font-family="'Helvetica Neue', Helvetica, Arial-Unicode, Arial, Sans-serif"
     id="text10"
     style="fill:#ffffff;fill-opacity:1;">Created by ProSymbols</text>
<text
     x="0"
     y="532"
     fill="#000000"
     font-size="5px"
     font-weight="bold"
     font-family="'Helvetica Neue', Helvetica, Arial-Unicode, Arial, Sans-serif"
     id="text12"
     style="fill:#ffffff;fill-opacity:1;">from the Noun Project</text>
</svg>