<?xml version="1.0" encoding="UTF-8" standalone="no"?>
<svg
   xmlns:dc="http://purl.org/dc/elements/1.1/"
   xmlns:cc="http://creativecommons.org/ns#"
   xmlns:rdf="http://www.w3.org/1999/02/22-rdf-syntax-ns#"
   xmlns:svg="http://www.w3.org/2000/svg"
   xmlns="http://www.w3.org/2000/svg"
   xmlns:sodipodi="http://sodipodi.sourceforge.net/DTD/sodipodi-0.dtd"
   xmlns:inkscape="http://www.inkscape.org/namespaces/inkscape"
   version="1.1"
   x="0px"
   y="0px"
   viewBox="0 0 320 320"
   enable-background="new 0 0 512 512"
   xml:space="preserve"
   id="svg14"
   sodipodi:docname="noun_new_1887016_white.svg"
   inkscape:version="0.92.5 (2060ec1f9f, 2020-04-08)"
   width="320"
   height="320"><metadata
   id="metadata20"><rdf:RDF><cc:Work
       rdf:about=""><dc:format>image/svg+xml</dc:format><dc:type
         rdf:resource="http://purl.org/dc/dcmitype/StillImage" /><dc:title /></cc:Work></rdf:RDF></metadata><defs
   id="defs18" /><sodipodi:namedview
   pagecolor="#ffffff"
   bordercolor="#666666"
   borderopacity="1"
   objecttolerance="10"
   gridtolerance="10"
   guidetolerance="10"
   inkscape:pageopacity="0"
   inkscape:pageshadow="2"
   inkscape:window-width="1837"
   inkscape:window-height="966"
   id="namedview16"
   showgrid="false"
   inkscape:pagecheckerboard="true"
   inkscape:zoom="2.085965"
   inkscape:cx="-4.7177319"
   inkscape:cy="181.38412"
   inkscape:window-x="78"
   inkscape:window-y="27"
   inkscape:window-maximized="0"
   inkscape:current-layer="g2153"
   fit-margin-top="20"
   fit-margin-left="20"
   fit-margin-right="20"
   fit-margin-bottom="20" />

<g
   transform="matrix(19.892655,0,0,20.525425,-8.8155963,-21286.362)"
   id="g2153"
   style="fill:#ffffff;fill-opacity:1"><g
   transform="matrix(0.158971,0,0,0.15013879,0.53777806,1037.3537)"
   id="g6"><path
     inkscape:connector-curvature="0"
     d="M 86.4,2.5 H 32 c -6.1,0 -11.1,5 -11.1,11.1 v 7.3 H 13.6 C 7.5,20.9 2.5,25.9 2.5,32 v 54.5 c 0,6.1 5,11.1 11.1,11.1 H 68 c 6.1,0 11.1,-5 11.1,-11.1 v -7.3 h 7.3 c 6.1,0 11.1,-5 11.1,-11.1 V 13.6 C 97.5,7.5 92.5,2.5 86.4,2.5 Z M 70.9,86.4 c 0,1.6 -1.3,2.9 -2.9,2.9 H 13.6 C 12,89.3 10.7,88 10.7,86.4 V 32 c 0,-1.6 1.3,-2.9 2.9,-2.9 H 68 c 1.6,0 2.9,1.3 2.9,2.9 z M 89.3,68 c 0,1.6 -1.3,2.9 -2.9,2.9 H 79.1 V 32 C 79.1,25.9 74.1,20.9 68,20.9 H 29 v -7.3 c 0,-1.6 1.3,-2.9 2.9,-2.9 h 54.5 c 1.6,0 2.9,1.3 2.9,2.9 V 68 Z"
     id="path2" /><path
     inkscape:connector-curvature="0"
     d="m 57.9,55.1 h -13 v -13 c 0,-2.3 -1.8,-4.1 -4.1,-4.1 -2.3,0 -4.1,1.8 -4.1,4.1 v 13 h -13 c -2.3,0 -4.1,1.8 -4.1,4.1 0,1.1 0.5,2.2 1.2,2.9 0.7,0.7 1.8,1.2 2.9,1.2 h 13 v 13 c 0,1.1 0.5,2.2 1.2,2.9 0.7,0.7 1.8,1.2 2.9,1.2 2.3,0 4.1,-1.8 4.1,-4.1 v -13 h 13 c 2.3,0 4.1,-1.8 4.1,-4.1 0,-2.3 -1.9,-4.1 -4.1,-4.1 z"
     id="path4" /></g><text
   style="font-weight:bold;font-size:0.63918734px;font-family:'Helvetica Neue', Helvetica, Arial-Unicode, Arial, Sans-serif;fill:#000000;stroke-width:0.12783746"
   x="6.1872272"
   y="880.25323"
   font-size="5px"
   font-weight="bold"
   id="text8"
   transform="scale(0.83550285,1.196884)">Created by Alice Design</text>

<text
   style="font-weight:bold;font-size:0.63918734px;font-family:'Helvetica Neue', Helvetica, Arial-Unicode, Arial, Sans-serif;fill:#000000;stroke-width:0.12783746"
   x="6.620575"
   y="881.75891"
   font-size="5px"
   font-weight="bold"
   id="text10"
   transform="scale(0.83550285,1.196884)">from the Noun Project</text>

</g></svg>