<?xml version="1.0" encoding="UTF-8" standalone="no"?>
<svg
   xmlns:dc="http://purl.org/dc/elements/1.1/"
   xmlns:cc="http://creativecommons.org/ns#"
   xmlns:rdf="http://www.w3.org/1999/02/22-rdf-syntax-ns#"
   xmlns:svg="http://www.w3.org/2000/svg"
   xmlns="http://www.w3.org/2000/svg"
   xmlns:sodipodi="http://sodipodi.sourceforge.net/DTD/sodipodi-0.dtd"
   xmlns:inkscape="http://www.inkscape.org/namespaces/inkscape"
   version="1.1"
   x="0px"
   y="0px"
   viewBox="0 0 100 100"
   id="svg877"
   sodipodi:docname="noun_Camera_757299_white_clipped.svg"
   inkscape:version="0.92.5 (2060ec1f9f, 2020-04-08)"
   width="100"
   height="100">
  <metadata
     id="metadata883">
    <rdf:RDF>
      <cc:Work
         rdf:about="">
        <dc:format>image/svg+xml</dc:format>
        <dc:type
           rdf:resource="http://purl.org/dc/dcmitype/StillImage" />
        <dc:title />
      </cc:Work>
    </rdf:RDF>
  </metadata>
  <defs
     id="defs881" />
  <sodipodi:namedview
     pagecolor="#ffffff"
     bordercolor="#666666"
     borderopacity="1"
     objecttolerance="10"
     gridtolerance="10"
     guidetolerance="10"
     inkscape:pageopacity="0"
     inkscape:pageshadow="2"
     inkscape:window-width="1920"
     inkscape:window-height="1016"
     id="namedview879"
     showgrid="false"
     inkscape:pagecheckerboard="true"
     inkscape:zoom="6.704"
     inkscape:cx="-2.6551316"
     inkscape:cy="19.540573"
     inkscape:window-x="0"
     inkscape:window-y="27"
     inkscape:window-maximized="1"
     inkscape:current-layer="svg877" />
  <g
     transform="matrix(1.1508992,0,0,1.0681895,-7.54496,-1020.7128)"
     id="g871"
     style="fill:#ffffff;fill-opacity:1">
    <path
       style="color:#000000;display:inline;overflow:visible;visibility:visible;fill:#ffffff;fill-opacity:1;stroke:none;enable-background:accumulate"
       d="m 38,967.36215 -7,12 H 16 c -4.986,0 -9,4.01401 -9,9 v 40.00005 c 0,4.986 4.014,9 9,9 h 68 c 4.986,0 9,-4.014 9,-9 v -40.00005 c 0,-4.98599 -4.014,-9 -9,-9 H 69 l -7,-12 z m 12,18 c 12.679,0 23,10.32118 23,22.99995 0,12.6789 -10.321,23.0001 -23,23.0001 -12.6788,0 -23,-10.3212 -23,-23.0001 0,-12.67879 10.3212,-22.99995 23,-22.99995 z m 31,3 c 1.6568,0 3,1.34315 3,3 0,1.65684 -1.3432,3 -3,3 -1.6568,0 -3,-1.34316 -3,-3 0,-1.65685 1.3432,-3 3,-3 z m -31,1 c -10.517,0 -19,8.48294 -19,18.99995 0,10.5171 8.483,19.0001 19,19.0001 10.5172,0 19,-8.4829 19,-19.0001 0,-10.51703 -8.4828,-18.99995 -19,-18.99995 z m 0,8 c 6.0751,0 11,4.92495 11,10.99995 0,6.0752 -4.9249,11.0001 -11,11.0001 -6.0751,0 -11,-4.9249 -11,-11.0001 0,-6.075 4.9249,-10.99995 11,-10.99995 z"
       marker="none"
       visibility="visible"
       display="inline"
       overflow="visible"
       id="path869"
       inkscape:connector-curvature="0" />
  </g>
  <text
     style="font-weight:bold;font-size:5px;font-family:'Helvetica Neue', Helvetica, Arial-Unicode, Arial, Sans-serif;fill:#000000"
     x="0.97218382"
     y="110.44234"
     font-size="5px"
     font-weight="bold"
     id="text6">Created by Alfa Design</text>
  <text
     style="font-weight:bold;font-size:5px;font-family:'Helvetica Neue', Helvetica, Arial-Unicode, Arial, Sans-serif;fill:#000000"
     x="0.97218382"
     y="115.44234"
     font-size="5px"
     font-weight="bold"
     id="text8">from the Noun Project</text>
</svg>
