<?xml version="1.0" encoding="UTF-8" standalone="no"?>
<svg
   xmlns:dc="http://purl.org/dc/elements/1.1/"
   xmlns:cc="http://creativecommons.org/ns#"
   xmlns:rdf="http://www.w3.org/1999/02/22-rdf-syntax-ns#"
   xmlns:svg="http://www.w3.org/2000/svg"
   xmlns="http://www.w3.org/2000/svg"
   xmlns:sodipodi="http://sodipodi.sourceforge.net/DTD/sodipodi-0.dtd"
   xmlns:inkscape="http://www.inkscape.org/namespaces/inkscape"
   version="1.1"
   x="0px"
   y="0px"
   viewBox="0 0 320 320"
   enable-background="new 0 0 512 512"
   xml:space="preserve"
   id="svg14"
   sodipodi:docname="noun_grid_347013_white.svg"
   inkscape:version="0.92.5 (2060ec1f9f, 2020-04-08)"
   width="320"
   height="320"><metadata
   id="metadata20"><rdf:RDF><cc:Work
       rdf:about=""><dc:format>image/svg+xml</dc:format><dc:type
         rdf:resource="http://purl.org/dc/dcmitype/StillImage" /><dc:title></dc:title></cc:Work></rdf:RDF></metadata><defs
   id="defs18" /><sodipodi:namedview
   pagecolor="#ffffff"
   bordercolor="#666666"
   borderopacity="1"
   objecttolerance="10"
   gridtolerance="10"
   guidetolerance="10"
   inkscape:pageopacity="0"
   inkscape:pageshadow="2"
   inkscape:window-width="1837"
   inkscape:window-height="966"
   id="namedview16"
   showgrid="false"
   inkscape:pagecheckerboard="true"
   inkscape:zoom="1.475"
   inkscape:cx="65.824248"
   inkscape:cy="143.68851"
   inkscape:window-x="78"
   inkscape:window-y="27"
   inkscape:window-maximized="0"
   inkscape:current-layer="svg14"
   fit-margin-top="20"
   fit-margin-left="20"
   fit-margin-right="20"
   fit-margin-bottom="20" />

<g
   transform="matrix(19.892655,0,0,20.525425,-8.8155963,-21286.362)"
   id="g2153"
   style="fill:#ffffff;fill-opacity:1"><g
     transform="translate(78,-251.00067)"
     id="g2151"
     style="fill:#ffffff;fill-opacity:1"><path
       inkscape:connector-curvature="0"
       style="color:#000000;font-style:normal;font-variant:normal;font-weight:normal;font-stretch:normal;font-size:medium;line-height:normal;font-family:sans-serif;text-indent:0;text-align:start;text-decoration:none;text-decoration-line:none;text-decoration-style:solid;text-decoration-color:#000000;letter-spacing:normal;word-spacing:normal;text-transform:none;writing-mode:lr-tb;direction:ltr;baseline-shift:baseline;text-anchor:start;white-space:normal;clip-rule:nonzero;display:inline;overflow:visible;visibility:visible;opacity:1;isolation:auto;mix-blend-mode:normal;color-interpolation:sRGB;color-interpolation-filters:linearRGB;solid-color:#000000;solid-opacity:1;fill:#ffffff;fill-opacity:1;fill-rule:evenodd;stroke:none;stroke-width:1px;stroke-linecap:butt;stroke-linejoin:miter;stroke-miterlimit:4;stroke-dasharray:none;stroke-dashoffset:0;stroke-opacity:1;color-rendering:auto;image-rendering:auto;shape-rendering:auto;text-rendering:auto;enable-background:accumulate"
       d="m 1.9863281,1.0058594 v 1 H 0.98632812 v 1 H 1.9863281 v 3 H 0.98632812 v 1 H 1.9863281 V 10.005859 H 0.98632812 v 1 H 1.9863281 v 3 H 0.98632812 v 1 H 1.9863281 v 1 h 1 v -1 h 3 v 1 h 1 v -1 h 3 v 1 h 0.9999999 v -1 h 3 v 1 h 1 v -1 h 1 v -1 h -1 v -3 h 1 v -1 h -1 V 7.0058594 h 1 v -1 h -1 v -3 h 1 v -1 h -1 v -1 h -1 v 1 h -3 v -1 H 9.9863281 v 1 h -3 v -1 h -1 v 1 h -3 v -1 z m 1,2 h 3 v 3 h -3 z m 4,0 h 3 v 3 h -3 z m 3.9999999,0 h 3 v 3 h -3 z m -7.9999999,4 h 3 v 2.9999996 h -3 z m 4,0 h 3 v 2.9999996 h -3 z m 3.9999999,0 h 3 v 2.9999996 h -3 z M 2.9863281,11.005859 h 3 v 3 h -3 z m 4,0 h 3 v 3 h -3 z m 3.9999999,0 h 3 v 3 h -3 z"
       transform="translate(-78,1287.3629)"
       id="path2149" /></g></g></svg>