<?xml version="1.0" encoding="UTF-8" standalone="no"?>
<svg
   xmlns:dc="http://purl.org/dc/elements/1.1/"
   xmlns:cc="http://creativecommons.org/ns#"
   xmlns:rdf="http://www.w3.org/1999/02/22-rdf-syntax-ns#"
   xmlns:svg="http://www.w3.org/2000/svg"
   xmlns="http://www.w3.org/2000/svg"
   xmlns:sodipodi="http://sodipodi.sourceforge.net/DTD/sodipodi-0.dtd"
   xmlns:inkscape="http://www.inkscape.org/namespaces/inkscape"
   version="1.1"
   x="0px"
   y="0px"
   viewBox="0 0 320 320"
   enable-background="new 0 0 512 512"
   xml:space="preserve"
   id="svg14"
   sodipodi:docname="noun_cropping_4070068_white.svg"
   inkscape:version="0.92.5 (2060ec1f9f, 2020-04-08)"
   width="320"
   height="320"><metadata
   id="metadata20"><rdf:RDF><cc:Work
       rdf:about=""><dc:format>image/svg+xml</dc:format><dc:type
         rdf:resource="http://purl.org/dc/dcmitype/StillImage" /><dc:title></dc:title></cc:Work></rdf:RDF></metadata><defs
   id="defs18" /><sodipodi:namedview
   pagecolor="#ffffff"
   bordercolor="#666666"
   borderopacity="1"
   objecttolerance="10"
   gridtolerance="10"
   guidetolerance="10"
   inkscape:pageopacity="0"
   inkscape:pageshadow="2"
   inkscape:window-width="1837"
   inkscape:window-height="966"
   id="namedview16"
   showgrid="false"
   inkscape:pagecheckerboard="true"
   inkscape:zoom="1.475"
   inkscape:cx="-55.192701"
   inkscape:cy="89.451222"
   inkscape:window-x="78"
   inkscape:window-y="27"
   inkscape:window-maximized="0"
   inkscape:current-layer="g2153"
   fit-margin-top="20"
   fit-margin-left="20"
   fit-margin-right="20"
   fit-margin-bottom="20" />

<g
   transform="matrix(19.892655,0,0,20.525425,-8.8155963,-21286.362)"
   id="g2153"
   style="fill:#ffffff;fill-opacity:1"><g
     transform="matrix(0.158971,0,0,0.15013879,0.53777806,1037.3537)"
     id="g6"><ellipse
       cx="49.863667"
       cy="5.6764493"
       id="circle1626"
       rx="1.704252"
       ry="1.7495261"
       style="stroke-width:0.21584257" /><path
       inkscape:connector-curvature="0"
       d="M 73.723198,24.921237 H 26.004143 v 45.186109 l 8.829303,-12.948463 a 1.7042519,1.7495263 0 0 1 2.601327,-0.233781 l 8.647587,8.877534 12.526251,-22.504593 a 1.7042519,1.7495263 0 0 1 3.003746,0.0855 L 73.723198,68.246502 Z M 41.34241,49.414605 a 8.5212593,8.7476312 0 1 1 8.52126,-8.747631 8.5308457,8.7574719 0 0 1 -8.52126,8.747631 z"
       id="path1628"
       style="stroke-width:0.21584257" /><ellipse
       cx="41.342403"
       cy="40.666973"
       id="circle1630"
       rx="5.1127558"
       ry="5.2485781"
       style="stroke-width:0.21584257" /><path
       inkscape:connector-curvature="0"
       d="m 82.244458,14.42408 a 1.7042519,1.7495263 0 0 1 1.704252,1.749528 v 57.734366 h 6.817007 V 54.362265 a 5.1127557,5.2485786 0 0 1 0,-9.89532 V 10.62411 A 5.1381064,5.2746028 0 0 1 87.650346,7.4259761 H 54.683294 a 5.1127557,5.2485786 0 0 1 -9.639249,0 H 26.004143 V 14.42408 Z"
       id="path1632"
       style="stroke-width:0.21584257" /><path
       inkscape:connector-curvature="0"
       d="M 80.540206,73.907974 V 17.923134 H 26.004143 v 3.499052 H 75.42745 a 1.7042519,1.7495263 0 0 1 1.704252,1.749526 v 50.736262 z"
       id="path1634"
       style="stroke-width:0.21584257" /><ellipse
       cx="7.2573705"
       cy="5.6764493"
       id="circle1636"
       rx="1.704252"
       ry="1.7495261"
       style="stroke-width:0.21584257" /><path
       inkscape:connector-curvature="0"
       d="M 8.9616233,14.42408 H 15.778632 V 7.4259761 H 12.076996 A 5.1370412,5.2735094 0 0 1 8.9616233,10.62411 Z"
       id="path1638"
       style="stroke-width:0.21584257" /><path
       inkscape:connector-curvature="0"
       d="m 47.934882,69.527381 a 1.7042519,1.7495263 0 0 1 -2.684197,0.369145 L 36.460794,60.874002 27.57312,73.907974 H 72.669965 L 59.988843,47.872397 Z"
       id="path1640"
       style="stroke-width:0.21584257" /><ellipse
       cx="92.469963"
       cy="49.414604"
       id="circle1642"
       rx="1.704252"
       ry="1.7495261"
       style="stroke-width:0.21584257" /><rect
       x="2.1446159"
       y="17.923134"
       width="13.634016"
       height="3.4990523"
       id="rect1644"
       style="stroke-width:0.21584257" /><ellipse
       cx="92.469963"
       cy="5.6764493"
       id="circle1646"
       rx="1.704252"
       ry="1.7495261"
       style="stroke-width:0.21584257" /><ellipse
       cx="49.863667"
       cy="93.152756"
       id="circle1648"
       rx="1.704252"
       ry="1.7495261"
       style="stroke-width:0.21584257" /><ellipse
       cx="7.2573705"
       cy="49.414604"
       id="circle1650"
       rx="1.704252"
       ry="1.7495261"
       style="stroke-width:0.21584257" /><path
       inkscape:connector-curvature="0"
       d="M 15.778632,82.655606 V 24.921237 H 8.9616233 v 19.545708 a 5.1127557,5.2485786 0 0 1 0,9.89532 v 33.842834 a 5.1370412,5.2735094 0 0 1 3.1153727,3.198133 h 32.967049 a 5.1127557,5.2485786 0 0 1 9.639249,0 h 19.039904 v -6.9981 H 17.482884 a 1.7042519,1.7495263 0 0 1 -1.704252,-1.749526 z"
       id="path1652"
       style="stroke-width:0.21584257" /><ellipse
       cx="7.2573705"
       cy="93.152756"
       id="circle1654"
       rx="1.704252"
       ry="1.7495261"
       style="stroke-width:0.21584257" /><ellipse
       cx="92.469963"
       cy="93.152756"
       id="circle1656"
       rx="1.704252"
       ry="1.7495261"
       style="stroke-width:0.21584257" /><path
       inkscape:connector-curvature="0"
       d="M 22.595639,75.657499 V 0.42787137 H 19.187135 V 80.906074 h 78.395589 v -3.49905 H 24.299891 a 1.7042519,1.7495263 0 0 1 -1.704252,-1.749525 z"
       id="path1658"
       style="stroke-width:0.21584257" /><path
       inkscape:connector-curvature="0"
       d="M 90.765717,84.405132 H 83.94871 v 6.9981 h 3.701636 a 5.1381064,5.2746028 0 0 1 3.115371,-3.198133 z"
       id="path1660"
       style="stroke-width:0.21584257" /><rect
       x="77.131699"
       y="84.405128"
       width="3.408504"
       height="13.996209"
       id="rect1662"
       style="stroke-width:0.21584257" /><text
       style="font-weight:bold;font-size:1.0792129px;font-family:'Helvetica Neue', Helvetica, Arial-Unicode, Arial, Sans-serif;fill:#000000;stroke-width:0.21584257"
       x="-4.7340446"
       y="107.26437"
       font-size="5px"
       font-weight="bold"
       id="text1664"
       transform="scale(0.98697621,1.0131956)">Created by iconixar</text>
<text
       style="font-weight:bold;font-size:1.0792129px;font-family:'Helvetica Neue', Helvetica, Arial-Unicode, Arial, Sans-serif;fill:#000000;stroke-width:0.21584257"
       x="-4.7340446"
       y="108.34359"
       font-size="5px"
       font-weight="bold"
       id="text1666"
       transform="scale(0.98697621,1.0131956)">from the Noun Project</text>
</g></g></svg>