<?xml version="1.0" encoding="UTF-8" standalone="no"?>
<svg
   xmlns:dc="http://purl.org/dc/elements/1.1/"
   xmlns:cc="http://creativecommons.org/ns#"
   xmlns:rdf="http://www.w3.org/1999/02/22-rdf-syntax-ns#"
   xmlns:svg="http://www.w3.org/2000/svg"
   xmlns="http://www.w3.org/2000/svg"
   xmlns:sodipodi="http://sodipodi.sourceforge.net/DTD/sodipodi-0.dtd"
   xmlns:inkscape="http://www.inkscape.org/namespaces/inkscape"
   data-name="Layer 1"
   viewBox="0 0 64 64"
   x="0px"
   y="0px"
   version="1.1"
   id="svg8"
   sodipodi:docname="noun_grid_4065750_white.svg"
   width="64"
   height="64"
   inkscape:version="0.92.5 (2060ec1f9f, 2020-04-08)">
  <metadata
     id="metadata14">
    <rdf:RDF>
      <cc:Work
         rdf:about="">
        <dc:format>image/svg+xml</dc:format>
        <dc:type
           rdf:resource="http://purl.org/dc/dcmitype/StillImage" />
        <dc:title></dc:title>
      </cc:Work>
    </rdf:RDF>
  </metadata>
  <defs
     id="defs12" />
  <sodipodi:namedview
     pagecolor="#ffffff"
     bordercolor="#666666"
     borderopacity="1"
     objecttolerance="10"
     gridtolerance="10"
     guidetolerance="10"
     inkscape:pageopacity="0"
     inkscape:pageshadow="2"
     inkscape:window-width="1579"
     inkscape:window-height="954"
     id="namedview10"
     showgrid="false"
     inkscape:pagecheckerboard="true"
     inkscape:zoom="8.34386"
     inkscape:cx="37.263484"
     inkscape:cy="32.302577"
     inkscape:window-x="181"
     inkscape:window-y="44"
     inkscape:window-maximized="0"
     inkscape:current-layer="svg8">
    <inkscape:grid
       type="xygrid"
       id="grid1372" />
  </sodipodi:namedview>
  <path
     d="m 3.0000004,55.000001 v 2 h 4.0000002 v 4 h 2 v -4 H 19 v 4 h 2 v -4 h 10 v 4 h 2 v -4 h 10 v 4 h 2 v -4 h 10 v 4 h 2 v -4 h 4 v -2 h -4 v -10 h 4 v -2 h -4 v -10 h 4 v -2 h -4 v -10 h 4 v -2 H 57 V 8.9999996 h 4 v -2 H 57 V 2.9999995 H 55 V 6.9999996 H 45 V 2.9999995 H 43 V 6.9999996 H 33 V 2.9999995 H 31 V 6.9999996 H 21 V 2.9999995 H 19 V 6.9999996 H 9.0000006 V 2.9999995 h -2 V 6.9999996 H 3.0000004 v 2 H 7.0000006 V 19.000001 H 3.0000004 v 2 h 4.0000002 v 10 H 3.0000004 v 2 h 4.0000002 v 10 H 3.0000004 v 2 h 4.0000002 v 10 z m 17.9999996,0 v -10 h 10 v 10 z m 12,-24 v -10 h 10 v 10 z m 10,2 v 10 H 33 v -10 z m -12,-2 H 21 v -10 h 10 z m 0,2 v 10 H 21 v -10 z m 2,22 v -10 h 10 v 10 z m 22,0 H 45 v -10 h 10 z m 0,-12 H 45 v -10 h 10 z m 0,-12 H 45 v -10 H 55 Z M 55,8.9999996 V 19.000001 H 45 V 8.9999996 Z m -12,0 V 19.000001 H 33 V 8.9999996 Z m -12,0 V 19.000001 H 21 V 8.9999996 Z m -21.9999994,0 H 19 V 19.000001 H 9.0000006 Z m 0,12.0000014 H 19 v 10 H 9.0000006 Z m 0,12 H 19 v 10 H 9.0000006 Z m 0,12 H 19 v 10 H 9.0000006 Z"
     id="path2"
     style="fill:#ffffff;fill-opacity:1"
     inkscape:connector-curvature="0" />
  <text
     x="-1.0169492"
     y="70.118645"
     font-size="5px"
     font-weight="bold"
     id="text4"
     style="font-weight:bold;font-size:5px;font-family:'Helvetica Neue', Helvetica, Arial-Unicode, Arial, Sans-serif;fill:#000000">Created by Studio 365</text>
  <text
     x="-0.33898306"
     y="74.440674"
     font-size="5px"
     font-weight="bold"
     id="text6"
     style="font-weight:bold;font-size:5px;font-family:'Helvetica Neue', Helvetica, Arial-Unicode, Arial, Sans-serif;fill:#000000">from the Noun Project</text>
</svg>
