<svg xmlns="http://www.w3.org/2000/svg" xmlns:xlink="http://www.w3.org/1999/xlink" xmlns:serif="http://www.serif.com/" viewBox="0 0 44 55" version="1.1" xml:space="preserve" style="" x="0px" y="0px" fill-rule="evenodd" clip-rule="evenodd" stroke-linejoin="round" stroke-miterlimit="2"><g transform="matrix(1,0,0,1,-240,-60)"><g transform="matrix(1,0,0,1,240,60)"><rect x="0" y="0" width="44" height="44" style="" fill="none"/><g transform="matrix(1,0,0,1,-240,-60)"><path d="M249.828,80.05C250.749,74.223 255.809,69.778 261.899,69.778C268.672,69.778 274.172,75.277 274.172,82.05C274.172,88.486 269.208,93.771 262.899,94.222L262.899,91.222C267.55,90.767 271.172,86.828 271.172,82.05C271.172,76.933 267.017,72.778 261.899,72.778C257.469,72.778 253.76,75.892 252.856,80.05L257.314,80.05L251.657,85.707L246,80.05L249.828,80.05Z"/></g></g></g><text x="0" y="59" fill="#000000" font-size="5px" font-weight="bold" font-family="'Helvetica Neue', Helvetica, Arial-Unicode, Arial, Sans-serif">Created by Paweł Gleń</text><text x="0" y="64" fill="#000000" font-size="5px" font-weight="bold" font-family="'Helvetica Neue', Helvetica, Arial-Unicode, Arial, Sans-serif">from the Noun Project</text></svg>