<?xml version="1.0" encoding="UTF-8" standalone="no"?>
<svg
   xmlns:dc="http://purl.org/dc/elements/1.1/"
   xmlns:cc="http://creativecommons.org/ns#"
   xmlns:rdf="http://www.w3.org/1999/02/22-rdf-syntax-ns#"
   xmlns:svg="http://www.w3.org/2000/svg"
   xmlns="http://www.w3.org/2000/svg"
   xmlns:sodipodi="http://sodipodi.sourceforge.net/DTD/sodipodi-0.dtd"
   xmlns:inkscape="http://www.inkscape.org/namespaces/inkscape"
   version="1.1"
   x="0px"
   y="0px"
   viewBox="0 0 22 26"
   enable-background="new 0 0 24 24"
   xml:space="preserve"
   id="svg14"
   sodipodi:docname="noun_clipboard_332274.svg"
   width="22"
   height="26"
   inkscape:version="0.92.5 (2060ec1f9f, 2020-04-08)"><metadata
     id="metadata20"><rdf:RDF><cc:Work
         rdf:about=""><dc:format>image/svg+xml</dc:format><dc:type
           rdf:resource="http://purl.org/dc/dcmitype/StillImage" /><dc:title></dc:title></cc:Work></rdf:RDF></metadata><defs
     id="defs18" /><sodipodi:namedview
     pagecolor="#ffffff"
     bordercolor="#666666"
     borderopacity="1"
     objecttolerance="10"
     gridtolerance="10"
     guidetolerance="10"
     inkscape:pageopacity="0"
     inkscape:pageshadow="2"
     inkscape:window-width="1842"
     inkscape:window-height="1015"
     id="namedview16"
     showgrid="false"
     inkscape:pagecheckerboard="true"
     inkscape:zoom="31.466667"
     inkscape:cx="15.646147"
     inkscape:cy="14.148136"
     inkscape:window-x="78"
     inkscape:window-y="27"
     inkscape:window-maximized="0"
     inkscape:current-layer="svg14" /><g
     id="g8"
     style="fill:#ffffff;fill-opacity:1"
     transform="matrix(1.1072564,0,0,1.1779661,-2.2870768,-1.1355932)"><path
       d="M 19,4 H 16 V 3 H 13 C 13,2.4 12.6,2 12,2 11.4,2 11,2.4 11,3 H 8 V 4 H 5 C 4.4,4 4,4.4 4,5 v 16 c 0,0.6 0.4,1 1,1 h 14 c 0.6,0 1,-0.4 1,-1 V 5 C 20,4.4 19.6,4 19,4 Z M 18,20 H 6 V 6 h 2 v 1 h 8 V 6 h 2 z"
       id="path2"
       style="fill:#ffffff;fill-opacity:1"
       inkscape:connector-curvature="0" /><rect
       x="8"
       y="10"
       width="8"
       height="2"
       id="rect4"
       style="fill:#ffffff;fill-opacity:1" /><rect
       x="8"
       y="14"
       width="8"
       height="2"
       id="rect6"
       style="fill:#ffffff;fill-opacity:1" /></g></svg>