<?xml version="1.0" encoding="UTF-8" standalone="no"?>
<svg
   xmlns:dc="http://purl.org/dc/elements/1.1/"
   xmlns:cc="http://creativecommons.org/ns#"
   xmlns:rdf="http://www.w3.org/1999/02/22-rdf-syntax-ns#"
   xmlns:svg="http://www.w3.org/2000/svg"
   xmlns="http://www.w3.org/2000/svg"
   xmlns:sodipodi="http://sodipodi.sourceforge.net/DTD/sodipodi-0.dtd"
   xmlns:inkscape="http://www.inkscape.org/namespaces/inkscape"
   version="1.1"
   x="0px"
   y="0px"
   viewBox="0 0 320 320"
   enable-background="new 0 0 512 512"
   xml:space="preserve"
   id="svg14"
   sodipodi:docname="noun_Draw_3104195_white.svg"
   inkscape:version="0.92.5 (2060ec1f9f, 2020-04-08)"
   width="320"
   height="320"><metadata
   id="metadata20"><rdf:RDF><cc:Work
       rdf:about=""><dc:format>image/svg+xml</dc:format><dc:type
         rdf:resource="http://purl.org/dc/dcmitype/StillImage" /><dc:title /></cc:Work></rdf:RDF></metadata><defs
   id="defs18" /><sodipodi:namedview
   pagecolor="#ffffff"
   bordercolor="#666666"
   borderopacity="1"
   objecttolerance="10"
   gridtolerance="10"
   guidetolerance="10"
   inkscape:pageopacity="0"
   inkscape:pageshadow="2"
   inkscape:window-width="1837"
   inkscape:window-height="966"
   id="namedview16"
   showgrid="false"
   inkscape:pagecheckerboard="true"
   inkscape:zoom="8.34386"
   inkscape:cx="36.292342"
   inkscape:cy="6.4068216"
   inkscape:window-x="78"
   inkscape:window-y="27"
   inkscape:window-maximized="0"
   inkscape:current-layer="g2072"
   fit-margin-top="20"
   fit-margin-left="20"
   fit-margin-right="20"
   fit-margin-bottom="20" />

<g
   id="g2072"
   transform="matrix(0.57053081,0,0,0.62271252,62.996925,-87.673898)"
   style="fill:#ffffff;fill-opacity:1"><g
   id="g2052"
   style="fill:#ffffff;fill-opacity:1"><path
     id="path2046"
     d="m 386.8,170.5 -15.1,-15.2 c -11,-11.1 -28.8,-11.1 -39.8,0 l -15,15.1 54.9,55.3 15,-15.1 c 10.9,-11.1 10.9,-29.1 0,-40.1 z"
     inkscape:connector-curvature="0"
     style="fill:#ffffff;fill-opacity:1" /><polygon
     id="polygon2048"
     points="178.5,420.3 360.4,237.1 305.5,181.8 123.6,365 "
     style="fill:#ffffff;fill-opacity:1" /><path
     id="path2050"
     d="m 170.8,579.6 c 0,-0.9 0,-0.3 0,-0.6 v -0.5 l -0.1,-1.3 -0.1,-0.7 -0.1,-1 -0.3,-2 c -0.1,-0.7 -0.2,-1.3 -0.3,-1.9 l -0.4,-1.8 c -0.3,-1.2 -0.7,-2.3 -1,-3.5 -1.5,-4.7 -4,-9.1 -7,-12.8 -3,-3.8 -6.5,-6.8 -10.1,-9.2 -7.3,-4.9 -14.7,-7.7 -22,-10 -7.3,-2.2 -14.4,-3.8 -21.3,-5.2 -13.9,-2.8 -27.3,-5 -39.3,-8.7 -6,-1.9 -11.6,-4.2 -16.2,-7.3 -4.6,-3.1 -8,-7 -9.7,-11.8 -0.9,-2.4 -1.4,-4.9 -1.5,-7.5 l -0.1,-1.9 v -1.1 c 0,-0.4 0,-0.6 0.1,-0.9 0.1,-1.1 0.3,-2.4 0.6,-3.5 1.3,-4.6 4.3,-8.6 8,-11.8 3.7,-3.2 8,-5.7 12.2,-7.8 4.2,-2.1 8.5,-3.7 12.5,-5 3.7,-1.2 7.2,-2.2 10.5,-3 0.1,0 0.1,0 0.2,-0.1 l 81.6,-26.9 0.4,-0.4 -54.9,-55.3 -0.4,0.4 -23.3,71.8 c -1.4,4.4 -5.2,7.7 -9.8,8.5 -1.7,0.3 -3.5,0.7 -5.3,1.1 -4.3,1 -8.8,2.2 -13.5,4 -4.7,1.8 -9.6,4 -14.2,7.4 -4.6,3.3 -9.2,8 -11.7,14.4 -0.6,1.6 -1.1,3.2 -1.4,5 -0.1,0.4 -0.2,1 -0.2,1.3 l -0.1,1.1 c 0,0.9 -0.1,1.7 -0.1,2.6 -0.1,3.3 0.2,6.9 1.2,10.4 0.9,3.5 2.5,6.9 4.6,10 2.1,3.1 4.7,5.8 7.5,8.1 5.7,4.6 12.1,7.9 18.5,10.6 13,5.4 26.6,8.8 39.7,12.8 6.6,2 13.1,4.1 19.1,6.6 6,2.5 11.7,5.5 15.9,9 2.1,1.7 3.8,3.6 5.1,5.6 1.2,1.9 2.1,3.9 2.6,6.1 0.1,0.6 0.2,1.1 0.3,1.7 0,0.5 0.2,1.2 0.1,1.6 v 0.7 0.4 0.7 1.3 0.3 0.2 c 0,-0.1 0,0.5 0,-0.3 v 0.5 c -0.2,2.8 -0.6,5.4 -1.3,7.7 -1.4,4.7 -3.8,8 -7.2,10.8 -3.4,2.8 -8.1,4.9 -13.3,6.5 -5.2,1.6 -10.9,2.6 -16.6,3.3 -5.8,0.7 -11.6,1.1 -17.3,1.3 -11.5,0.4 -22.7,0.1 -33.1,-0.3 -20.8,-0.9 -38.5,-2.1 -50.8,-2.9 -5,-0.3 -9.1,-0.6 -12.2,-0.8 V 647 c 3,-0.1 6.9,-0.2 11.4,-0.3 12.4,-0.4 30.2,-0.7 51.9,-1.8 10.9,-0.6 22.7,-1.4 35.5,-3 6.4,-0.8 13,-1.9 19.9,-3.3 6.9,-1.5 14,-3.4 21.3,-6.4 7.2,-3 14.9,-7.2 21.6,-13.8 3.3,-3.3 6.3,-7.2 8.5,-11.4 2.2,-4.3 3.8,-8.8 4.7,-13.3 0.9,-4.5 1.2,-9 1.1,-13.2 z"
     inkscape:connector-curvature="0"
     style="fill:#ffffff;fill-opacity:1" /></g><text
   id="text2054"
   font-weight="bold"
   font-size="5px"
   y="560.16571"
   x="-78.22068"
   style="font-weight:bold;font-size:13.97030163px;font-family:'Helvetica Neue', Helvetica, Arial-Unicode, Arial, Sans-serif;fill:#ffffff;fill-opacity:1;stroke-width:2.79406023"
   transform="scale(0.8224644,1.2158581)">Created by Serhii Smirnov</text>

<text
   id="text2056"
   font-weight="bold"
   font-size="5px"
   y="574.13605"
   x="-78.22068"
   style="font-weight:bold;font-size:13.97030163px;font-family:'Helvetica Neue', Helvetica, Arial-Unicode, Arial, Sans-serif;fill:#ffffff;fill-opacity:1;stroke-width:2.79406023"
   transform="scale(0.8224644,1.2158581)">from the Noun Project</text>

</g></svg>