<?xml version="1.0" encoding="utf-8"?>
<!-- Generator: Adobe Illustrator 22.0.1, SVG Export Plug-In . SVG Version: 6.00 Build 0)  -->
<svg version="1.1" id="Layer_1" xmlns="http://www.w3.org/2000/svg" xmlns:xlink="http://www.w3.org/1999/xlink" x="0px" y="0px"
	 viewBox="0 0 113.8 55.2" style="enable-background:new 0 0 113.8 55.2;" xml:space="preserve">
<style type="text/css">
	.st0{fill:#D1AB87;}
	.st1{fill:#5A9FD7;}
	.st2{fill:none;stroke:#D1AB87;stroke-width:1.622;stroke-miterlimit:10;}
</style>
<g id="Group_11" transform="translate(-861.917 120)">
	<g id="Group_9">
		<g id="Group_6">
			<g id="Group_5">
				<path id="Path_5" class="st0" d="M876.4-120l-3.5,1.4l5.2,2.3L876.4-120z"/>
				<path id="Path_6" class="st0" d="M870.5-119.4L866-115l7.6,3.1L870.5-119.4z"/>
				<path id="Path_7" class="st0" d="M866.3-114l3.5,7.5l7.6,3.5l-3.4-7.6L866.3-114z"/>
				<path id="Path_8" class="st0" d="M864.6-115.9l-2.5,6.4l6.3,2.8L864.6-115.9z"/>
				<path id="Path_9" class="st0" d="M862.5-108.2l2.6,6.4l6.4,2.6l-2.8-6.2L862.5-108.2z"/>
				<path id="Path_10" class="st0" d="M881.7-114.6l0.4-4.2l-4.2,0.4l1.2,2.6L881.7-114.6z"/>
				<path id="Path_11" class="st0" d="M881.9-109.6l1.4-3.5l-3.7-1.6L881.9-109.6z"/>
				<path id="Path_12" class="st0" d="M881.4-108.5l-2.9-6.7l-6.7-2.9l2.9,6.7L881.4-108.5z"/>
				<path id="Path_13" class="st0" d="M882.7-107.2l-7.5-3.2l3.2,7.6L882.7-107.2z"/>
				<path id="Path_14" class="st0" d="M870-105.1l2.8,6.3l6.4-2.5L870-105.1z"/>
			</g>
		</g>
		<g id="Group_7" transform="translate(31.001 13.502)">
			<path id="Path_15" class="st1" d="M863.4-117.2c0.8-1.7,2.5-2.7,4.3-2.7c2.9,0,5.2,2.3,5.2,5.2c0,0.1,0,0.2,0,0.2
				c0.1,2.9-2.2,5.3-5.1,5.4c-0.1,0-0.1,0-0.2,0c-1.8,0-3.5-1-4.3-2.7v6.9h-1.2v-14.8h1.2V-117.2z M867.5-110.4
				c2.3,0,4.2-1.8,4.3-4.1s-1.8-4.2-4.1-4.3s-4.2,1.8-4.3,4.1c0,0,0,0,0,0.1c-0.1,2.3,1.7,4.2,4,4.2
				C867.4-110.4,867.4-110.4,867.5-110.4z"/>
			<path id="Path_16" class="st1" d="M875.7-119.2c0.9-0.5,1.9-0.8,3-0.8c1.9-0.2,3.6,1.2,3.8,3.1c0,0.2,0,0.5,0,0.7v6.8h-1.2v-1.3
				c-1.2,1.7-3.5,2.1-5.2,0.9c-0.9-0.7-1.5-1.7-1.5-2.8c0-2,1.7-3.5,3.6-3.5c0.1,0,0.1,0,0.2,0c1.2,0,2.2,0.5,2.9,1.5v-1.5
				c0.1-1.4-1-2.6-2.3-2.7c-0.1,0-0.2,0-0.3,0c-1,0-2,0.3-2.9,0.9L875.7-119.2z M878.5-110.1c1.4,0.2,2.6-0.8,2.7-2.2
				s-0.8-2.6-2.2-2.7c-0.2,0-0.4,0-0.5,0c-1.4-0.1-2.6,1-2.7,2.4C875.9-111.2,877.1-110.1,878.5-110.1L878.5-110.1z"/>
			<path id="Path_17" class="st1" d="M886.8-117.2c0.8-1.7,2.5-2.7,4.3-2.7c2.9,0,5.2,2.3,5.2,5.2c0,0.1,0,0.2,0,0.2
				c0.1,2.9-2.2,5.3-5.1,5.4c-0.1,0-0.1,0-0.2,0c-1.8,0-3.5-1-4.3-2.7v6.9h-1.2v-14.8h1.2V-117.2z M891-110.4c2.3,0,4.2-1.8,4.3-4.1
				s-1.8-4.2-4.1-4.3s-4.2,1.8-4.3,4.1c0,0,0,0,0,0.1c-0.1,2.2,1.7,4.1,3.9,4.2C890.9-110.4,890.9-110.4,891-110.4L891-110.4z"/>
			<path id="Path_18" class="st1" d="M899.5-114c0.1,2.1,1.9,3.8,4,3.7c1.4-0.1,2.8-0.6,3.9-1.5v1.4c-1.1,0.8-2.5,1.2-3.9,1.2
				c-2.9,0-5.3-2.3-5.3-5.2c0-0.1,0-0.1,0-0.2c-0.1-2.9,2.1-5.3,5-5.4c0.1,0,0.1,0,0.2,0c2.8-0.1,5.1,2.1,5.1,4.9c0,0.1,0,0.2,0,0.2
				c0,0.3,0,0.5,0,0.8L899.5-114z M899.5-115.1h7.9c0.1-2.1-1.6-3.8-3.6-3.8c-0.1,0-0.2,0-0.3,0
				C901.3-118.9,899.6-117.2,899.5-115.1z"/>
			<path id="Path_19" class="st1" d="M912.1-118.2c0.5-1.1,1.6-1.8,2.8-1.8c0.3,0,0.6,0,0.9,0.1v1.3c-0.4-0.1-0.7-0.2-1.1-0.2
				c-1.8,0-2.5,1.3-2.6,3.1v6.3h-1.2v-10.4h1.2L912.1-118.2L912.1-118.2z"/>
		</g>
		<g id="Group_8" transform="translate(0.178 36.019)">
			<path id="Path_20" class="st1" d="M863.4-113.2c0.8-1.7,2.5-2.7,4.3-2.7c3,0.1,5.3,2.6,5.3,5.6c-0.1,2.9-2.4,5.2-5.3,5.3
				c-1.8,0-3.5-1-4.3-2.7v6.9h-1.2v-14.8h1.2V-113.2z M867.5-106.3c2.3-0.1,4.1-2,4-4.4c-0.1-2.2-1.8-4-4-4c-2.3,0.1-4.1,2-4,4.4
				C863.5-108.1,865.3-106.4,867.5-106.3z"/>
			<path id="Path_21" class="st1" d="M876.1-120c0.5,0,0.9,0.4,0.9,0.9c0,0,0,0,0,0c0,0.5-0.4,0.9-0.9,0.9c0,0,0,0-0.1,0
				c-0.5,0-0.9-0.4-0.9-0.9C875.2-119.6,875.6-120,876.1-120z M876.7-105.3h-1.2v-10.4h1.2V-105.3z"/>
			<path id="Path_22" class="st1" d="M881.2-113.8c0.6-1.3,1.9-2.1,3.3-2c2.2-0.1,4,1.7,4.1,3.8c0,0.1,0,0.3,0,0.4v6.4h-1.2v-6.2
				c0.1-1.7-1.2-3.1-2.9-3.2c-1.7-0.1-3.1,1.2-3.2,2.9c0,0.1,0,0.1,0,0.2v6.3h-1.2v-10.4h1.2V-113.8z"/>
			<path id="Path_23" class="st1" d="M892.2-109.9c0.1,2.1,1.9,3.8,4,3.7c1.4-0.1,2.8-0.6,3.9-1.5v1.4c-1.1,0.8-2.5,1.2-3.9,1.2
				c-3-0.1-5.4-2.6-5.3-5.6c0.1-2.8,2.3-5.1,5.2-5.3c2.8,0,5.1,2.2,5.1,5c0,0.1,0,0.1,0,0.2c0,0.3,0,0.5,0,0.8L892.2-109.9z
				 M892.2-111h7.9c0.1-2.1-1.6-3.8-3.6-3.8c-0.1,0-0.2,0-0.3,0C894-114.8,892.3-113.1,892.2-111L892.2-111z"/>
			<path id="Path_24" class="st1" d="M911.1-105.9c-0.9,0.6-1.9,0.9-2.9,0.8c-3,0-5.4-2.4-5.4-5.4c0-3,2.4-5.4,5.4-5.4l0,0
				c1,0,2,0.3,2.9,0.8v1.4c-0.8-0.7-1.8-1-2.9-1c-2.3,0.1-4.1,2-4,4.4c0.1,2.2,1.8,4,4,4c1,0,2.1-0.3,2.9-1V-105.9z"/>
			<path id="Path_25" class="st1" d="M918.2-115.9c3,0,5.4,2.4,5.4,5.4s-2.4,5.4-5.4,5.4c-3,0-5.4-2.4-5.4-5.4l0,0
				c0-2.9,2.3-5.4,5.2-5.4C918.1-115.9,918.1-115.9,918.2-115.9z M918.2-106.3c2.3,0,4.2-1.8,4.3-4.1s-1.8-4.2-4.1-4.3
				s-4.2,1.8-4.3,4.1c0,0,0,0,0,0.1c-0.1,2.3,1.7,4.2,4,4.2C918.1-106.3,918.2-106.3,918.2-106.3z"/>
			<path id="Path_26" class="st1" d="M927.4-113.8c0.6-1.3,1.9-2.1,3.3-2c2.2-0.1,4,1.7,4.1,3.8c0,0.1,0,0.3,0,0.4v6.4h-1.2v-6.2
				c0.1-1.7-1.2-3.1-2.9-3.2c-1.7-0.1-3.1,1.2-3.2,2.9c0,0.1,0,0.1,0,0.2v6.3h-1.2v-10.4h1.2V-113.8z"/>
			<path id="Path_27" class="st1" d="M938.4-109.9c0.1,2.1,1.9,3.8,4,3.7c1.4-0.1,2.8-0.6,3.9-1.5v1.4c-1.1,0.8-2.5,1.2-3.9,1.2
				c-3-0.1-5.4-2.6-5.3-5.6c0.1-2.8,2.3-5.1,5.2-5.3c2.8-0.1,5.1,2.1,5.1,4.9c0,0.1,0,0.2,0,0.2c0,0.3,0,0.5,0,0.8L938.4-109.9z
				 M938.4-111h7.9c0.1-2.1-1.6-3.8-3.6-3.8c-0.1,0-0.2,0-0.3,0C940.2-114.8,938.5-113.1,938.4-111L938.4-111z"/>
		</g>
		<path id="Path_28" class="st2" d="M862.7-84.2c0-6.7,10-13.2,20.7-7.5c8.7,4.7,9.5,5.3,25.8,5.3h37.9"/>
		<path id="Path_29" class="st2" d="M867.8-91.9c0,0-6.8-1.8-3.8-8.6"/>
		<path id="Path_30" class="st2" d="M877.3-93.9c0,0-4.6,0.6-2.7,6.3"/>
	</g>
</g>
</svg>
