<svg version="1.1" id="Layer_1" xmlns="http://www.w3.org/2000/svg" xmlns:xlink="http://www.w3.org/1999/xlink" x="0px" y="0px" width="232px" height="30px" viewBox="0 0 232 30" enable-background="new 0 0 232 30" xml:space="preserve">
<path fill="#5A542F" d="M5.8979492,10.3452148H0V5.5708008h17.2460938v4.7744141H11.347168v14.8867188H5.8979492V10.3452148z"></path>
<path fill="#5A542F" d="M18.2280273,5.5708008h15.8134766v4.6342773H23.621582v2.9770508h9.4370117v4.2973633H23.621582v3.1181641
h10.5605469v4.6342773H18.2280273V5.5708008z"></path>
<path fill="#5A542F" d="M34.7470703,15.4575195v-0.0566406c0-5.7294922,4.4101562-10.2236328,10.3647461-10.2236328
c4.0161133,0,6.6000977,1.6855469,8.3417969,4.1005859l-4.1010742,3.1743164
c-1.1235352-1.4042969-2.4155273-2.3032227-4.2973633-2.3032227c-2.7524414,0-4.6904297,2.3310547-4.6904297,5.1967773v0.0551758
c0,2.949707,1.9379883,5.2529297,4.6904297,5.2529297c2.050293,0,3.2583008-0.9550781,4.4375-2.387207l4.1010742,2.9204102
c-1.8535156,2.5561523-4.3535156,4.4384766-8.7070312,4.4384766C39.269043,25.6254883,34.7470703,21.3276367,34.7470703,15.4575195z
"></path>
<path fill="#5A542F" d="M54.2871094,5.5708008h5.4492188v7.3588867h6.9936523V5.5708008h5.4492188v19.6611328h-5.4492188v-7.4716797
h-6.9936523v7.4716797h-5.4492188V5.5708008z"></path>
<path fill="#5A542F" d="M106.815918,5.4609375h15.8134766v4.6337891h-10.4204102v2.9780273h9.4375v4.296875h-9.4375v3.1181641
h10.5610352v4.6342773H106.815918V5.4609375z"></path>
<path fill="#5A542F" d="M130.9433594,5.3203125h5.2524414l8.3701172,19.8017578h-5.8422852l-1.4326172-3.5107422h-7.5834961
l-1.4042969,3.5107422h-5.7299805L130.9433594,5.3203125z M135.71875,17.3696289l-2.1914062-5.5893555l-2.21875,5.5893555H135.71875
z"></path>
<path fill="#5A542F" d="M145.0712891,5.4609375h9.2973633c3.0048828,0,5.0834961,0.7861328,6.4033203,2.1342773
c1.1518555,1.1235352,1.7416992,2.640625,1.7416992,4.5786133v0.0556641c0,3.0058594-1.6010742,5-4.0449219,6.0390625
l4.690918,6.8535156h-6.2915039l-3.9604492-5.9545898h-0.0561523h-2.331543v5.9545898h-5.4487305V5.4609375z
M154.1152344,14.8984375c1.8540039,0,2.9213867-0.8989258,2.9213867-2.331543v-0.0556641
c0-1.5449219-1.1235352-2.3320312-2.9492188-2.3320312h-3.5673828v4.7192383H154.1152344z"></path>
<path fill="#5A542F" d="M163.8618164,5.4609375h5.0839844l8.0898438,10.3925781V5.4609375h5.3920898v19.6611328h-4.7749023
l-8.3979492-10.7856445v10.7856445h-5.3930664V5.4609375z"></path>
<path fill="#5A542F" d="M184.6181641,5.4609375h5.4765625v19.6611328h-5.4765625V5.4609375z"></path>
<path fill="#5A542F" d="M192.2856445,5.4609375h5.0839844l8.0893555,10.3925781V5.4609375h5.3925781v19.6611328h-4.7749023
l-8.3979492-10.7856445v10.7856445h-5.3930664V5.4609375z"></path>
<path fill="#5A542F" d="M212.2558594,15.3476562v-0.0566406c0-5.7294922,4.4936523-10.2241211,10.5888672-10.2241211
c3.4550781,0,5.8989258,1.0678711,7.9770508,2.8652344l-3.2016602,3.8481445
c-1.4042969-1.1796875-2.809082-1.8540039-4.7475586-1.8540039c-2.8364258,0-5.0268555,2.3876953-5.0268555,5.3930664v0.0561523
c0,3.1738281,2.21875,5.449707,5.3359375,5.449707c1.3203125,0,2.331543-0.2817383,3.1459961-0.8154297v-2.387207h-3.8759766
v-3.9882812h9.0439453v8.8476562c-2.078125,1.7133789-4.9707031,3.0336914-8.5385742,3.0336914
C216.8339844,25.515625,212.2558594,21.3027344,212.2558594,15.3476562z"></path>
<path fill="#00A0C6" d="M97.5146484,9.4536133c3.2099609,0,5.2998047-0.184082,6.2675781-0.5551758
c0.96875-0.3603516,1.4536133-1.1499023,1.4536133-2.3706055c0-1.0908203-0.5712891-1.8701172-1.7138672-2.3388672
l2.3554688-2.3061523c1.034668,0.8505859,1.5522461,1.9189453,1.5522461,3.2055664
c0,1.8422852-1.078125,3.434082-3.2338867,4.7749023c-2.1552734,1.3408203-4.7026367,2.0107422-7.6420898,2.0107422
L97.5146484,9.4536133z"></path>
<path fill="#00A0C6" d="M96.5537109,11.8740234h-1.2407227c-1.6977539,3.9702148-4.7397461,7.3081055-9.125,10.0161133
c1.8398438,2.0600586,3.8857422,3.6567383,6.1391602,4.7900391c2.2524414,1.1333008,4.5058594,1.699707,6.7587891,1.699707
c2.0239258,0,3.6567383-0.5825195,4.8979492-1.7470703c1.2402344-1.1655273,3.2216797-1.3920898,0.9633789,0.5107422
C102.6899414,29.0473633,99.9287109,30,96.6640625,30c-2.3505859,0-4.6772461-0.5712891-6.9785156-1.7138672
c-2.3017578-1.1425781-4.3769531-2.7470703-6.2270508-4.8139648c-2.3833008,1.2636719-4.9033203,1.8959961-7.5585938,1.8959961
c-2.0463867,0-3.7304688-0.6010742-5.0532227-1.8032227c-1.3222656-1.2021484-1.9833984-2.7382812-1.9833984-4.6103516
c0-1.7836914,0.6074219-3.3369141,1.8217773-4.6586914c1.2148438-1.3227539,3.1782227-2.5708008,5.8911133-3.7460938
c-0.5229492-1.3388672-0.7832031-2.5859375-0.7832031-3.7397461c0-1.7636719,0.7148438-3.3398438,2.1459961-4.7280273
S80.9931641,0,82.8105469,0c1.2299805,0,2.2363281,0.3681641,3.0200195,1.1020508
c0.7836914,0.7353516,1.175293,1.6850586,1.175293,2.8500977c0,2.9833984-2.3676758,5.2426758-7.1030273,6.7773438
c0.3266602,0.9580078,0.940918,2.3999023,1.84375,4.3261719c1.2299805-2.1450195,2.5947266-3.6147461,4.0961914-4.4086914
c1.5019531-0.7954102,3.668457-1.1933594,6.4970703-1.1933594h5.1748047L96.5537109,11.8740234z M82.5942383,22.4287109
c-2.2182617-2.7519531-4.1318359-6.3950195-5.7412109-10.9306641c-3.0517578,1.4140625-4.5771484,3.5463867-4.5771484,6.3955078
c0,1.6308594,0.5302734,2.9746094,1.5913086,4.0297852c1.0615234,1.0546875,2.4086914,1.5820312,4.0415039,1.5820312
C79.2583008,23.5053711,80.8198242,23.1464844,82.5942383,22.4287109 M79.5439453,9.7978516
c3.1757812-1.3515625,4.7631836-3.309082,4.7631836-5.8701172c0-0.9379883-0.1987305-1.6411133-0.5957031-2.1098633
c-0.3964844-0.46875-0.9916992-0.703125-1.7856445-0.703125c-0.9350586,0-1.71875,0.3867188-2.3491211,1.1611328
c-0.6308594,0.7739258-0.9458008,1.7329102-0.9458008,2.8774414C78.6308594,6.309082,78.9350586,7.8569336,79.5439453,9.7978516
M92.8486328,11.8740234h-1.9106445c-4.0708008,0-6.9716797,1.3813477-8.7026367,4.1435547
c1.0234375,1.8808594,2.105957,3.5776367,3.2490234,5.0893555C89.0766602,19.1274414,91.5307617,16.0507812,92.8486328,11.8740234"></path>
<path fill="#5A542F" d="M90.9189453,5.4609375h5.4487305v14.8857422h9.5219727v4.7753906H90.9189453V5.4609375z"></path>
<path fill="#00A0C6" d="M92.3295898,26.6801758c2.253418,1.1333008,4.5058594,1.699707,6.7587891,1.699707
c2.0244141,0,3.6572266-0.5825195,4.8984375-1.7470703c1.2402344-1.1655273,1.8608398-2.6953125,1.8608398-4.5898438
c0-1.7646484-0.8671875-3.0117188-2.6005859-3.7416992l2.6333008-2.4638672
c1.6376953,0.7734375,2.4575195,2.2138672,2.4575195,4.3237305c0,2.7519531-1.1298828,5.0795898-3.387207,6.9824219
C102.6928711,29.0473633,99.9311523,30,96.6669922,30c-2.3510742,0-4.6767578-0.5712891-6.9785156-1.7138672
S90.0761719,25.546875,92.3295898,26.6801758z"></path>
</svg>
