<?xml version="1.0" encoding="utf-8"?>
<!-- Generator: Adobe Illustrator 19.1.0, SVG Export Plug-In . SVG Version: 6.00 Build 0)  -->
<svg version="1.1" id="Layer_1" xmlns="http://www.w3.org/2000/svg" xmlns:xlink="http://www.w3.org/1999/xlink" x="0px" y="0px"
	 viewBox="0 0 251.6 181.9" style="enable-background:new 0 0 251.6 181.9;" xml:space="preserve">
<style type="text/css">
	.st0{fill:#02717E;}
	.st1{fill:#1EA0AC;}
	.st2{opacity:0.94;}
	.st3{fill:#FFFFFF;}
</style>
<polygon class="st0" points="0,162.5 124,181.9 124,30 0,10.6 "/>
<rect class="st1" width="251.6" height="162.1"/>
<g class="st2">
	<path class="st3" d="M30.2,30.6h8.4L42,59.4l4.1-28.8h7.6l4,28.8l3.5-28.8h8.2l-7.1,47.1h-8.6l-3.9-27.9l-3.9,27.9h-8.6L30.2,30.6z
		"/>
	<path class="st3" d="M72.2,30.6h18v7.8h-9.8v11.7H89v7.8h-8.7v12h10v7.8H72.2V30.6z"/>
	<path class="st3" d="M111.6,30.4h8.7l8.9,47.1H121l-1.5-9.3H112l-1.5,9.3h-7.9L111.6,30.4z M118.3,60.9l-2.5-15.5l-2.6,15.5H118.3z
		"/>
	<path class="st3" d="M131.7,30.6h8.5c8.4,0,14.5,4.4,14.5,15v0.6c0,6.1-2.4,10-5.5,12.4l6.3,19.1h-8.7l-5.3-16.4
		c-0.1,0-0.1,0-0.1,0h-1.4v16.4h-8.2V30.6z M140.3,53.8c3.6,0,6.2-2.1,6.2-7.6v-0.5c0-5.9-2.8-7.5-6.4-7.5h-0.2v15.6H140.3z"/>
	<path class="st3" d="M158.4,30.6h18v7.8h-9.8v11.7h8.7v7.8h-8.7v12h10v7.8h-18.2V30.6z"/>
	<path class="st3" d="M36.8,94.3H31v-7.8h19.7v7.8H45v39.2h-8.2V94.3z"/>
	<path class="st3" d="M54.2,86.5h18v7.8h-9.8V106H71v7.8h-8.7v12h10v7.8H54.2V86.5z"/>
	<path class="st3" d="M82.9,86.4h8.7l8.9,47.1h-8.2l-1.5-9.3h-7.5l-1.5,9.3H74L82.9,86.4z M89.6,116.8l-2.5-15.5l-2.6,15.5H89.6z"/>
	<path class="st3" d="M102.2,110.8v-1.6c0-16.5,6.1-23,13.8-23c2.3,0,3.6,0.3,5.4,1.1v8.5c-1.7-1-3-1.5-4.6-1.5
		c-3.6,0-6.2,3.2-6.2,15v1.7c0,12.4,2.6,15,6.4,15c1.3,0,2.9-0.5,4.6-1.5v8.1c-1.9,1.1-3.7,1.4-6,1.4
		C108,133.9,102.2,127.2,102.2,110.8z"/>
	<path class="st3" d="M125.6,86.5h8.2V106h7.1V86.5h8.2v47h-8.2v-19.7h-7.1v19.7h-8.2V86.5z"/>
	<path class="st3" d="M153.9,86.5h18v7.8h-9.8V106h8.7v7.8h-8.7v12h10v7.8h-18.2V86.5z"/>
	<path class="st3" d="M176.1,86.5h8.5c8.4,0,14.5,4.4,14.5,15v0.6c0,6.1-2.4,10-5.5,12.4l6.3,19.1h-8.7l-5.3-16.4
		c-0.1,0-0.1,0-0.1,0h-1.4v16.4h-8.2V86.5z M184.7,109.8c3.6,0,6.2-2.1,6.2-7.6v-0.5c0-5.9-2.8-7.5-6.4-7.5h-0.2v15.6H184.7z"/>
	<path class="st3" d="M201.8,131.9v-8.5c2.9,1.7,5.2,2.6,7.4,2.6c2.3,0,4.4-1.1,4.4-4v-0.1c0-2.1-0.7-3.8-4.6-8.2
		c-5.6-6.3-7.9-9.3-7.9-15v-0.1c0-7.5,4.9-12.3,11.4-12.3c3.3,0,5.2,0.5,7.3,1.5v8.5c-2.6-1.5-4.1-2.1-6.2-2.1c-2.3,0-4.2,1.5-4.2,4
		v0.1c0,2.2,0.7,3,4.6,7.5c6.4,7.5,7.9,10.3,7.9,15.7v0.1c0,7.4-5.2,12.3-11.6,12.3C206.9,133.9,204.2,133.1,201.8,131.9z"/>
</g>
</svg>
