<?xml version="1.0" encoding="utf-8"?>
<!-- Generator: Adobe Illustrator 25.2.3, SVG Export Plug-In . SVG Version: 6.00 Build 0)  -->
<svg version="1.1" id="Warstwa_1" xmlns="http://www.w3.org/2000/svg" xmlns:xlink="http://www.w3.org/1999/xlink" x="0px" y="0px"
	 viewBox="0 0 3500 1232" style="enable-background:new 0 0 3500 1232;" xml:space="preserve">
<style type="text/css">
	.st0{fill:#23D9B5;}
	.st1{fill:#BEF6F7;}
	.st2{fill:#ADD6EE;}
	.st3{fill:#AFD7EE;}
	.st4{fill:#32E3DC;}
	.st5{fill:#4CA6DB;}
	.st6{fill:#3CD6E5;}
	.st7{fill:#69ECEE;}
	.st8{fill:#22D9B4;}
	.st9{fill:#4CA7DB;}
	.st10{fill:#3DD6E5;}
	.st11{fill:#34E3DC;}
	.st12{fill:#37E4DD;}
	.st13{fill:#25DAB6;}
	.st14{fill:#33E3DC;}
	.st15{fill:#B7F2E6;}
	.st16{fill:#7090A8;}
</style>
<g>
	<g>
		<path class="st0" d="M38,356c2.2,0,4.3,0.1,6.5,0.1c118.2,0,236.3,0,354.5,0c2.1,0,4.3,0,6.8,0c0,43.1,0,85.7,0,129
			c-36.2,0-72.2,0-108.9,0c0,194.7,0,388.9,0,583.4c-50,0-99.4,0-149.4,0c0-194.4,0-388.6,0-583.6c-36.9,0-73.2,0-109.5,0
			C38,442,38,399,38,356z"/>
		<path class="st1" d="M1452.9,345.9c0-0.3,0.1-0.6,0.1-0.9c13,0,26,0,39,0c0,0.3,0,0.6,0,0.9C1479,345.9,1466,345.9,1452.9,345.9z"
			/>
		<path class="st2" d="M3295,345c0,0.3,0,0.6,0.1,0.9c-12.7,0-25.4,0-38.1,0c0.1-0.3,0.1-0.6,0.1-0.9
			C3269.7,345,3282.3,345,3295,345z"/>
		<path class="st3" d="M3458.1,886c0.3,0.1,0.6,0.1,0.9,0c0,12.7,0,25.3,0,38c-0.3,0.1-0.6,0.1-0.9,0.1
			C3458.1,911.4,3458.1,898.7,3458.1,886z"/>
		<path class="st4" d="M836.9,1042.7c1.8-12.7,3.5-25.3,5.5-38c5.2-33.2,10.4-66.4,15.7-99.5c5.2-32.9,10.4-65.7,15.6-98.6
			c5.9-37.3,11.6-74.6,17.5-111.9c5.4-34.7,11-69.3,16.4-104c5.5-34.8,11-69.7,16.4-104.5c5.5-35.2,11.1-70.3,16.6-105.5
			c1.1-7.1,2.5-14.1,3.2-21.2c0.4-3.8,1.9-4.5,5.4-4.5c38,0.1,76,0.1,114,0.1c24.7,0,49.3,0,74.7,0
			c37.4,237.7,74.8,475.3,112.2,713.4c-49.7,0-98.9,0-148.8,0c-4.4-35.9-8.8-71.9-13.2-108.1c-31.5,0-62.4,0-93.8,0
			c-4.2,36.1-8.4,72.1-12.6,108.2c-1.5,0.1-2.6,0.3-3.8,0.3c-41.5,0-83,0-124.5,0c-0.8,0-1.7-0.1-2.5-0.2c-1.3-2.3-2.5-4.6-3.8-6.9
			C843.7,1055.4,840.3,1049,836.9,1042.7z M1008.7,838c22.2,0,43.5,0,65,0c-10.7-89.8-21.3-179.3-31.9-268.7c-0.2,0-0.4,0-0.6,0
			C1030.4,658.7,1019.6,748.1,1008.7,838z"/>
		<path class="st5" d="M3458.1,886c0,12.7,0,25.4,0.1,38.1c-1.4,28.1-6.7,55.2-20.3,80.1c-18.1,33.2-47,52.7-82.3,63.8
			c-26.5,8.3-53.7,11-81.3,11.2c-28.4,0.1-56.5-2-84.1-9.6c-54.8-15.1-88-50.7-100.1-106.1c-4.1-18.4-6.2-37.1-6.2-56
			c-0.1-21.8-0.3-43.6-0.5-65.5c0-1.8,0-3.6,0-5.8c49.3,0,98.2,0,147.8,0c0,1.8,0,3.5,0,5.3c0,19.2-0.4,38.3,0.2,57.5
			c0.3,9.2,1.6,18.5,3.5,27.6c2.6,12.6,11,20.4,23.7,21.7c9.1,0.9,18.8,0.9,27.7-1c15-3.1,21.3-15,22.5-29c2.3-26.4,2.1-52.9-3.8-79
			c-4.8-21.3-16.3-38.1-34.8-50.5c-30.7-20.4-61.1-41-91.2-62.3c-21-14.9-39.8-32.3-55.1-53.3c-17.8-24.3-27.9-51.5-29.7-81.4
			c-1.7-27.6-2.7-55.2-2.6-82.8c0.2-28.5,4.9-56.3,17.3-82.4c17.9-37.9,48.5-60.5,88.1-71.7c19.6-5.6,39.7-8.3,60-9.2
			c12.7,0,25.4,0,38.1,0c32,2,63.2,7.5,91.6,23.4c20.3,11.4,36.4,27.2,47.4,47.9c12.4,23.3,18.9,48.2,19.9,74.4
			c1.2,31.7,1.2,63.5,1.8,95.2c0,0.1-0.1,0.3-0.4,0.9c-48.8,0-97.9,0-147.6,0c0-3.1,0-6.2,0-9.3c0.1-19.5,0.7-39,0.1-58.5
			c-0.3-9.4-2.5-18.9-4.8-28.1c-2.7-10.5-10.8-15.5-21.1-16.7c-5.7-0.6-11.8-0.7-17.4,0.2c-11.4,1.8-19.1,8.7-22.1,19.8
			c-1.8,6.8-2.8,14-3.1,21c-0.5,11.5-0.5,23,0.1,34.5c1.1,20.3,5.8,39.6,19.2,55.6c4.4,5.3,9.9,9.9,15.7,13.6
			c26.1,16.6,53.1,31.9,78.7,49.3c33.3,22.6,60.1,51.5,77.7,88.2c14.3,29.7,23.2,60.8,25.4,93.8
			C3456.8,862.8,3457.4,874.4,3458.1,886z"/>
		<path class="st6" d="M2227.2,1068.5c0-237.5,0-474.6,0-712.2c109.6,0,218.9,0,328.6,0c0,42.8,0,85.5,0,128.8
			c-60,0-119.7,0-179.7,0c0,52.7,0,104.8,0,157.5c48.8,0,97.5,0,146.6,0c0,43.3,0,86,0,129.3c-48.7,0-97.4,0-146.5,0
			c0,56.1,0,111.7,0,167.8c59.8,0,119.5,0,179.6,0c0,43.2,0,85.7,0,128.7C2446.4,1068.5,2337,1068.5,2227.2,1068.5z"/>
		<path class="st7" d="M2129.8,1046.9c0,7.1,0,14.2,0,21.7c-49.3,0-98.2,0-147.7,0c0-98,0-195.9,0-294.2c-31.5,0-62.3,0-94,0
			c0,97.9,0,195.9,0,294.2c-49.6,0-98.6,0-147.8,0c0-237.4,0-474.6,0-712.3c49,0,98,0,147.6,0c0,96,0,191.9,0,288.2
			c31.4,0,62.3,0,93.8,0c0-96,0-191.9,0-288.5c23.5,0,46.4,0,69.3,0c-4.4,26.6-9.2,53.1-13,79.8c-3,21.1-5.1,42.4-6.9,63.6
			c-1.6,19-2.7,38.1-3,57.1c-0.3,23.1,0.1,46.2,0.9,69.3c0.8,23,2.3,46,4,69c1.2,16.8,2.8,33.7,5.1,50.4c2.7,19.5,6.3,38.8,9.7,58.2
			c7.9,43.8,18.9,86.8,33.2,128.9c7.7,22.6,16.5,44.9,25.8,66.9C2113.7,1015.5,2122.1,1031.1,2129.8,1046.9z"/>
		<path class="st8" d="M744,772c-38.8,0.1-77.6,0.1-116.5,0.2c-6.3,0-12.6,0-19.1,0c0,56,0,111.4,0,167.5c59.8,0,119.7,0,179.9,0
			c0,43.3,0,85.9,0,128.8c-109.6,0-218.9,0-328.7,0c0-237.1,0-474.3,0-712.1c1.6-0.1,3.3-0.2,5.1-0.2c45.2-0.1,90.3-0.1,135.5-0.2
			c51-0.1,102-0.1,153-0.1c2,0,4,0.1,6,0.2c-0.1,1.3,0,2.7-0.2,4c-4.1,19.8-8.6,39.4-12.3,59.3c-2.7,14.3-4.4,28.7-6.5,43.1
			c-1.1,7.5-2,15.1-3,22.6c-28.3,0.1-56.6,0.1-84.9,0.2c-12.8,0-25.7,0-38.5,0c-1.6,0-3.2,0.1-5.1,0.2c0,52.5,0,104.7,0,157.5
			c2.2,0,4.2,0,6.1,0c37.1,0,74.3,0,111.4,0c2,0,4,0.1,6,0.2c0.4,10.1,0.4,20.3,1.2,30.4c1,13.7,2.5,27.3,3.8,41
			c1,10.2,2.2,20.4,3.5,30.5C741.6,754,742.9,763,744,772z"/>
		<path class="st9" d="M2750,356.4c0.7-0.1,1.3-0.2,2-0.2c40.6,0.6,81.3,0.3,121.9,2.2c27.2,1.2,53.7,7.9,77.8,21.3
			c33.9,18.8,52.9,48.6,62.4,85.3c5.2,20.1,7.4,40.6,7.6,61.3c0.3,39.5,0.5,79,0,118.5c-0.7,46.3-22.2,82.3-57.3,111.1
			c-1.9,1.6-3.9,3.1-5.8,4.7c-0.1,0.1-0.1,0.3-0.3,0.9c3.2,2.6,6.4,5.4,9.8,7.9c19.1,14.1,30.2,33.3,33.7,56.4
			c3.6,23.3,6.1,46.8,8.1,70.3c2.9,33.1,4.6,66.4,7.3,99.6c1.7,20.9,10.7,39.7,19.7,58.3c2.3,4.8,4.6,9.5,7.2,14.8
			c-1.9,0.1-3.3,0.3-4.7,0.3c-47.8,0-95.6,0-143.5,0.1c-3.8,0-5.5-1.2-7-4.6c-9.3-21.8-17.8-43.8-21.3-67.4
			c-1.4-9.4-1.8-18.9-2.3-28.3c-1.8-29.2-3.4-58.5-5.4-87.7c-1.3-18.3-4.3-36.3-12.7-53c-8.4-16.8-21.5-25.8-40.7-25.1
			c-4.3,0.2-8.6,0-13.6,0c0,88.7,0,177.1,0,265.7c-1.8,0.1-2.9,0.3-4,0.3c-42.2,0-84.3,0-126.5,0c-0.8,0-1.7-0.2-2.5-0.2
			c0.2-0.6,0.4-1.3,0.7-1.9c9.6-18.8,20.2-37.2,28.5-56.6c12.3-29,23.9-58.4,34.1-88.2c12.1-35.6,21.4-72.1,28-109.3
			c4.9-27.8,9.8-55.7,13.6-83.7c2.9-21.8,4.4-43.8,6.1-65.8c1.1-14.6,2-29.2,2-43.8c0-29.5-0.6-58.9-0.9-88.4c0-0.5,0-1-0.1-1.5
			c-1.3-16.8-2.5-33.7-3.9-50.5c-0.9-11.1-1.8-22.1-3.2-33.1c-2-15.4-4.3-30.8-6.8-46.1C2755.5,385.3,2752.7,370.9,2750,356.4z
			 M2793.1,672.7c17.3,0,34.3,0.9,51.2-0.3c12.7-0.9,21.5-9.1,25-21.4c2.2-7.6,3.5-15.7,3.7-23.5c0.5-29.6,0.4-59.3,0.3-89
			c0-7-0.5-14-1.3-20.9c-2.5-20.3-11.8-30.2-32-31.7c-15.2-1.2-30.6-0.5-45.9-0.6c-0.3,0-0.5,0.4-1,0.7
			C2793.1,548,2793.1,610.1,2793.1,672.7z"/>
		<path class="st4" d="M1354.9,1054.1c-26.6-14.6-44.4-36.8-54.9-64.9c-9.8-26.2-13-53.6-13.1-81.4c-0.1-129.1-0.1-258.2,0-387.3
			c0-26.6,3.1-52.8,11.5-78.2c14.1-42.3,43.1-69.8,84.9-84.4c17.1-5.9,34.7-9.3,52.6-10.9c8.8,32.8,15,66.1,20,99.7
			c1.4,9.5,2.8,19,4.2,28.4c-17.2,3.8-22,17-24,32.1c-0.8,6.1-1.1,12.3-1.1,18.4c-0.1,109.5,0,219.1-0.1,328.6c0,3.5-0.2,7-0.3,10.5
			c-0.9,1.6-2.1,3.2-2.6,4.9c-3.6,12.1-6.5,24.4-10.7,36.2c-8.6,24-17.3,48.1-27,71.7c-6.8,16.6-15,32.6-23.2,48.5
			C1366.3,1035.8,1360.4,1044.9,1354.9,1054.1z"/>
		<path class="st10" d="M2750,356.4c2.7,14.5,5.5,28.9,7.9,43.4c2.5,15.3,4.8,30.7,6.8,46.1c1.4,11,2.3,22.1,3.2,33.1
			c1.4,16.8,2.6,33.7,3.9,50.5c0,0.5,0.1,1,0.1,1.5c0.3,29.5,0.9,58.9,0.9,88.4c0,14.6-0.9,29.2-2,43.8c-1.7,21.9-3.2,44-6.1,65.8
			c-3.8,28-8.7,55.9-13.6,83.7c-6.5,37.1-15.8,73.6-28,109.3c-10.2,29.8-21.8,59.2-34.1,88.2c-8.2,19.4-18.9,37.8-28.5,56.6
			c-0.3,0.6-0.4,1.2-0.7,1.9c-5,0-9.9,0-15.3,0c0-237.4,0-474.5,0-712c1.2-0.2,2.3-0.5,3.4-0.5c33.2,0,66.3,0,99.5,0
			C2748.4,356.1,2749.2,356.3,2750,356.4z"/>
		<path class="st6" d="M2129.8,1046.9c-7.7-15.8-16.1-31.4-22.9-47.6c-9.3-22-18-44.3-25.8-66.9c-14.3-42.1-25.3-85.1-33.2-128.9
			c-3.5-19.4-7-38.7-9.7-58.2c-2.3-16.7-3.9-33.5-5.1-50.4c-1.7-23-3.2-46-4-69c-0.8-23.1-1.2-46.2-0.9-69.3
			c0.3-19.1,1.4-38.1,3-57.1c1.8-21.3,3.9-42.5,6.9-63.6c3.8-26.7,8.6-53.2,13-79.8c26.1,0,52.2,0,78.7,0c0.1,1.9,0.2,3.5,0.2,5.1
			c0,227.3,0,454.5,0,681.8C2130,1044.2,2129.9,1045.6,2129.8,1046.9z"/>
		<path class="st7" d="M1354.9,1054.1c5.5-9.3,11.4-18.3,16.3-27.8c8.1-16,16.4-32,23.2-48.5c9.7-23.6,18.4-47.6,27-71.7
			c4.2-11.8,7.1-24.1,10.7-36.2c0.5-1.8,1.7-3.3,2.6-4.9c0.1,15.5-0.2,31,0.5,46.4c0.4,8.2,1.7,16.6,4,24.5
			c3.7,13.2,13.4,20.4,26.8,21.9c8.6,1,17.4,0.6,25.3-3.7c11.1-6,16-16.2,16.5-27.9c0.9-25.3,0.9-50.6,1.2-75.9c0.1-4.5,0-9,0-13.9
			c49.6,0,99,0,148.7,0c0.1,1.8,0.2,3.4,0.2,5c0,24.8,0.4,49.7-0.1,74.5c-0.5,25.2-3.5,50.1-12.3,73.9
			c-13.5,36.5-39.6,60.4-75.5,74.2c-22.9,8.8-46.7,13.1-71,14.2c-14.8,0.6-29.6,1.3-44.4,0.7c-32.9-1.3-65.2-6.2-94.9-21.9
			C1358,1056,1356.5,1055,1354.9,1054.1z"/>
		<path class="st7" d="M1460.2,475.3c-1.4-9.5-2.8-19-4.2-28.4c-5.1-33.6-11.3-66.9-20-99.7c5.7-0.4,11.3-0.9,17-1.3
			c13,0,26.1,0,39.1,0.1c30.4,1.6,60.1,6.6,87.7,20.4c38.8,19.4,61.5,51.1,71.2,92.9c5.2,22.5,6.9,45.3,6.9,68.3
			c0,18.2,0,36.3,0,54.5c0,1.8,0,3.6,0,5.7c-49.7,0-98.9,0-148.9,0c0-1.8,0-3.6,0-5.3c0-21.2,0.4-42.3-0.2-63.5
			c-0.2-8.5-1.7-17.2-4-25.4c-3.4-11.7-12.6-17.3-24.3-18.4C1473.8,474.5,1467,475.2,1460.2,475.3z"/>
		<path class="st11" d="M737,485c1-7.5,1.9-15.1,3-22.6c2.1-14.4,3.8-28.8,6.5-43.1c3.7-19.8,8.2-39.5,12.3-59.3
			c0.3-1.3,0.2-2.7,0.2-4c9.6,0,19.3,0,29.3,0c0,42.9,0,85.6,0,128.9C771.2,485,754.1,485,737,485z"/>
		<path class="st12" d="M744,772c-1.2-9-2.4-18-3.5-27c-1.2-10.2-2.4-20.4-3.5-30.5c-1.4-13.7-2.8-27.3-3.8-41
			c-0.7-10.1-0.8-20.2-1.2-30.4c7.6,0,15.3,0,23.3,0c0,42.9,0,85.6,0,128.9C751.5,772,747.8,772,744,772z"/>
		<path class="st13" d="M836.9,1042.7c3.4,6.3,6.9,12.7,10.3,19c1.3,2.3,2.5,4.6,3.8,6.9c-6.1,0-12.2,0-18.9,0
			C833.7,1059.7,835.3,1051.2,836.9,1042.7z"/>
	</g>
	<g>
		<path class="st7" d="M1915,193c-0.6,3.3-1.5,6.7-1.9,10c-2.8,24.7-9,48.3-22.9,69.4c-9.8,14.9-22.4,26.7-37.9,35.5
			c-19.7,11.1-41,17.2-63.5,19.1c-14.1,1.2-28.2,1.9-42.3,2c-35.3,0.3-70.7,0.1-106,0.1c-2,0-3.9,0-6.3,0c0-100.8,0-201.2,0-301.9
			c1.2-0.1,2.3-0.4,3.4-0.4c44,0,88-0.7,132,0.4c31.3,0.8,61.2,8.6,88,25.7c27.6,17.6,44.6,42.8,52.2,74.5c1.9,8,2.8,16.3,4.2,24.5
			c0.1,0.7,0.6,1.4,1,2.1C1915,167,1915,180,1915,193z M1721.2,260.9c9.1,0,17.9,0.2,26.6-0.1c9.3-0.3,18.7-0.4,27.8-2
			c25.6-4.6,41.6-20.3,49.3-44.7c6.6-21,6.8-42.6,2.9-64.1c-2.2-12.4-6.8-24-15.1-33.8c-12.4-14.6-28.6-20.6-47.2-21.2
			c-13.3-0.4-26.6-0.1-40-0.1c-1.4,0-2.9,0.2-4.4,0.3C1721.2,150.6,1721.2,205.5,1721.2,260.9z"/>
		<path class="st14" d="M1260,353c-6.2-6-12.5-11.9-18.5-18.1c-26.1-27.1-48.9-56.7-68.4-88.9c-2.2-3.7-4.4-5.6-9-5.2
			c-5.8,0.5-11.6,0.1-17.9,0.1c0,29.5,0,58.6,0,87.9c-29.1,0-57.7,0-86.6,0c0-100.7,0-201.2,0-302.2c1.9-0.1,3.5-0.3,5.1-0.3
			c41.2,0,82.3-0.5,123.5,0.2c30.4,0.5,59.5,7.2,84.6,25.5c23.1,16.8,34.5,39.9,35.2,68.4c0.9,39.4-17.3,68.4-49.2,89.7
			c-3.5,2.3-7,4.4-11.2,7c22.6,34.3,49.3,65.1,79.4,93.9c-6.1,3.9-11.8,7.5-17.5,11.1c-16.1,10.3-32.3,20.5-48.4,30.8
			C1260.7,353,1260.3,353,1260,353z M1146.4,175.3c13.4-0.5,26.6-0.1,39.6-1.5c26.8-2.9,42.5-26.3,36.2-52.6
			c-3.9-16.2-17.3-26.8-35.2-28.1c-12.6-0.9-25.3-0.3-37.9-0.4c-0.8,0-1.6,0.2-2.6,0.4C1146.4,120.2,1146.4,147.1,1146.4,175.3z"/>
		<path class="st0" d="M873,21c5.8,1,11.5,1.9,17.3,3c13.8,2.6,27.3,6.2,40,12.6c-3.1,3-6.2,5.8-9.2,8.9
			c-8.5,8.8-17.1,17.6-25.4,26.5c-2.9,3.1-5.3,6.7-8.2,9.9c-3.5,3.9-7.1,7.6-10.7,11.4c-7-1.2-14-3.1-21.1-3.4
			c-27.6-1.1-49.8,9.2-64.4,33.1c-13.8,22.6-16.6,47.7-13.7,73.5c1.8,16,8,30.4,17.6,43.3c-0.3,1.3-0.5,2.6-1,3.8
			c-5.1,13.8-10.4,27.6-15.2,41.5c-3.6,10.3-6.7,20.8-10,31.2c-20.5-9.3-37-23.4-50.1-41.6c-15.5-21.6-23.5-46.1-26-72.4
			c-2.7-28.8-0.9-57.2,8.5-84.8c16.6-48.6,50.9-77.9,100.2-90.3c10.1-2.5,20.6-3.5,30.9-5.2c0.9-0.2,1.7-0.6,2.6-1
			C847.7,21,860.3,21,873,21z"/>
		<path class="st15" d="M420.1,329c-0.4,0-0.7,0-1.1,0c0-101,0-202,0-303c0.5,0.1,0.9,0.3,1.4,0.4c-0.1,1.5-0.4,3-0.4,4.5
			C420,130.2,420.1,229.6,420.1,329z"/>
		<path class="st0" d="M420.1,329c0-99.4,0-198.7,0-298.1c0-1.5,0.2-3,0.4-4.5c42.8,0,85.6-0.4,128.4,0.1
			c23.3,0.3,46.1,4.6,66.6,16.7c26.4,15.5,38.6,38.9,36.3,69.3c-1.8,23.7-15.2,40.2-35.6,51.5c-3.9,2.1-8.1,3.8-13.3,6.2
			c2.4,1.1,3.9,1.8,5.4,2.4c17.1,6.1,31.5,15.9,41.5,31.3c9.5,14.6,12.8,30.7,11.5,48.1c-1,13.4-4.1,25.9-11.1,37.4
			c-9.8,15.8-24.4,25.6-41.6,31.8c-15.7,5.6-31.9,8.1-48.5,8.1c-46,0.1-92,0-137.9,0C421.4,329.1,420.7,329,420.1,329z M506.8,269.5
			c15.9-0.6,31.3-0.6,46.7-1.9c9-0.7,17-4.8,22-12.9c13.1-21.2,0.4-48.3-24.4-50.6c-14.4-1.3-28.9-0.6-43.4-0.8
			c-0.3,0-0.5,0.4-1,0.7C506.8,225.3,506.8,246.8,506.8,269.5z M506.9,145c13.3,0,25.9,0.3,38.5-0.1c6.7-0.2,12.9-2.7,18.5-6.8
			c14.7-10.7,16-34.7,2.3-46.3c-5.9-5-13.1-7.4-20.7-7.7c-12.3-0.5-24.6-0.3-36.9-0.3c-0.6,0-1.2,0.4-1.7,0.6
			C506.9,104.6,506.9,124.7,506.9,145z"/>
		<path class="st7" d="M1364.2,164.1c-0.1-8.3-0.2-16.7-0.2-25c0-35.3,0-70.6,0-106c0-1.9,0-3.9,0-6.1c71.5,0,142.4,0,213.6,0
			c0,22.5,0,44.8,0,67.7c-42,0-84,0-126.3,0c0,16.9,0,33.1,0,49.8c35.7,0,71.3,0,107.3,0c0,21.2,0,41.9,0,63.3
			c-35.6,0-71.3,0-107.3,0c0,17.9,0,35.1,0,53c43.8,0,87.5,0,131.5,0c0,22.9,0,45.2,0,67.7c-0.9,0.2-1.9,0.5-2.8,0.5
			c-50,0-100,0-149.9-0.1c-0.7-2.9-1.1-5.9-2-8.7c-7.2-22-14.1-44.2-22-66c-6-16.5-13.2-32.6-20.6-48.5
			C1378.8,191.7,1371.3,178,1364.2,164.1z"/>
		<path class="st4" d="M876.7,93.2c3.6-3.8,7.3-7.5,10.7-11.4c2.8-3.2,5.2-6.8,8.2-9.9c8.4-8.9,16.9-17.7,25.4-26.5
			c3-3.1,6.1-5.9,9.2-8.9c17.9,8,33.2,19.6,45.8,34.5c18.8,22.2,29.2,48.1,33.1,76.8c4.1,30.5,2.7,60.7-7.1,90.2
			c-16.2,48.5-49.8,78.2-98.9,90.9c-17,4.4-34.4,6-51.9,5.7c-26.6-0.6-52.6-4.6-77.2-15.6c-1.8-0.8-3.5-1.8-5.3-2.8
			c3.3-10.4,6.4-20.9,10-31.2c4.9-13.9,10.1-27.7,15.2-41.5c0.5-1.2,0.7-2.5,1-3.8c0.6,0.6,1.2,1.1,1.8,1.7c19,21,43,27.8,70.1,23.1
			c26.6-4.7,43.5-21.7,53-46.3c6.5-16.9,8.3-34.4,6.2-52.4C922.3,133.1,909,106.7,876.7,93.2z"/>
		<path class="st4" d="M1364.2,164.1c7.1,13.9,14.6,27.6,21.1,41.7c7.4,15.9,14.6,32,20.6,48.5c8,21.8,14.8,43.9,22,66
			c0.9,2.8,1.4,5.8,2,8.7c-21.8,0-43.6,0-65.6,0c-0.1-1.3-0.4-2.4-0.4-3.5c0-53,0-105.9,0-158.9
			C1364,165.8,1364.1,164.9,1364.2,164.1z"/>
	</g>
	<g>
		<path class="st16" d="M3426.7,646.1v-0.5c5.1-1.6,9.2-5.1,9.2-10.5c0.1-3.7-1.6-7.2-4.6-9.4c-3-2.2-6.8-3.5-15.2-3.5
			c-5.7,0-11.4,0.5-17.1,1.3v44.1h10.3v-17.5h4.9c5.7,0,8.4,2.2,9.2,6.7c1.4,5.4,2.2,9.1,3.5,10.7h10.8c-0.8-1.6-1.9-4-3.2-10.7
			C3433.2,651,3431.1,647.5,3426.7,646.1z M3414.5,642.9h-4.9v0l0,0h0v-12.6c1.9-0.4,3.8-0.6,5.7-0.5c6.5,0,9.5,2.7,9.5,6.7
			C3424.8,641,3420.2,642.9,3414.5,642.9z"/>
		<path class="st16" d="M3416.7,600.7h-0.3c-25.5,0-45.8,19.4-45.8,44.1s20.3,44.3,45.8,44.3s45.5-19.6,45.5-44.3
			S3441.9,600.7,3416.7,600.7z M3416.7,680c-19.8,0-34.7-15.6-34.7-35.2c0-19.4,14.9-35.2,34.1-35.2h0h0.3
			c19.5,0,34.1,15.9,34.1,35.5C3450.6,664.4,3435.9,680.3,3416.7,680z"/>
		<path class="st16" d="M1216.6,1153h22.5v31.6c-3.8,2.1-7.9,3.8-12.1,4.9c-4.6,1.2-9.3,1.8-14.1,1.8c-5.6,0.1-11.2-1-16.3-3.3
			c-4.6-2.1-8.8-5.1-12.2-8.9c-3.4-3.8-6-8.2-7.7-13c-3.5-10.1-3.5-21,0-31.1c1.7-4.8,4.3-9.2,7.7-13c3.4-3.8,7.6-6.8,12.2-8.9
			c10.1-4.3,21.5-4.5,31.7-0.4c4.3,1.9,8.2,4.6,11.5,8l7.2-7.1c-4.1-4.2-9.1-7.4-14.6-9.5c-6.3-2.2-12.9-3.3-19.5-3.1
			c-6.7-0.1-13.3,1.2-19.5,3.7c-11.8,4.8-21.2,14.2-25.9,26c-5,12.8-5,27,0,39.7c4.7,11.8,14.1,21.2,25.9,26
			c6.2,2.5,12.8,3.8,19.5,3.7c6.1,0,12.3-0.9,18.2-2.5c6.1-1.6,12-4,17.5-7.1v-46.3h-32.1V1153z"/>
		<polygon class="st16" points="1112.4,1183.2 1112.1,1183.2 1055.8,1103.2 1043.8,1103.2 1043.8,1197.6 1053.4,1197.6 
			1053.4,1116.8 1053.7,1116.8 1110,1197.6 1122,1197.6 1122,1103.2 1112.4,1103.2 		"/>
		<rect x="986" y="1103.2" class="st16" width="9.6" height="94.4"/>
		<path class="st16" d="M810,1103.2l-41.1,94.4h11.2l10.4-24.8h48.3l10.4,24.8h11.2l-41.1-94.4H810z M794.1,1164l20.5-49.6L835,1164
			H794.1z"/>
		<polygon class="st16" points="875.8,1112 907.4,1112 907.4,1197.6 917,1197.6 917,1112 917,1112 948.6,1112 948.6,1103.2 
			875.8,1103.2 		"/>
		<polygon class="st16" points="290.1,1153 290.1,1153 335.8,1153 335.8,1144.2 290.1,1144.2 290.1,1112 339,1112 339,1103.2 
			280.5,1103.2 280.5,1197.6 340.6,1197.6 340.6,1188.8 290.1,1188.8 		"/>
		<path class="st16" d="M733.9,1145c4.1-4.5,6.4-10.5,6.2-16.6c0-8.4-2.8-14.8-8.3-18.9c-5.6-4.2-13.1-6.3-22.7-6.3H680v94.4h9.6
			v-43.9l0,0h16l25.9,43.9h11.7l-27.2-44.8C723.8,1152.1,729.8,1149.5,733.9,1145z M689.6,1145V1112h17.1c3.7-0.1,7.3,0.4,10.9,1.3
			c2.6,0.7,5,1.9,7.1,3.5c1.7,1.4,3,3.2,3.9,5.3c0.8,2,1.2,4.2,1.2,6.3c0,2.2-0.4,4.4-1.2,6.5c-0.8,2-2.2,3.8-3.9,5.2
			c-2.1,1.6-4.5,2.8-7.1,3.5c-3.5,1-7.2,1.4-10.9,1.3H689.6z"/>
		<path class="st16" d="M228,1184c-2,1.8-4.2,3.2-6.7,4.3c-2.3,1-4.7,1.8-7.2,2.3c-2.4,0.4-4.9,0.7-7.4,0.7
			c-5.6,0.1-11.2-1-16.3-3.3c-4.6-2.1-8.8-5.1-12.2-8.9c-3.4-3.8-6-8.2-7.7-13c-3.6-10.1-3.6-21,0-31.1c1.7-4.8,4.3-9.2,7.7-13
			c3.4-3.8,7.6-6.8,12.2-8.9c5.1-2.3,10.7-3.4,16.3-3.3c2.5,0,5,0.4,7.5,1.1c2.4,0.7,4.8,1.6,7,2.8c2.1,1.1,4,2.4,5.8,4
			c1.5,1.3,2.9,2.9,4,4.5l8.4-6.3c-3.9-5.1-9.1-9.1-15.1-11.5c-5.6-2.3-11.6-3.4-17.6-3.5c-6.7-0.1-13.3,1.2-19.5,3.7
			c-11.8,4.8-21.2,14.2-25.9,26c-5,12.8-5,27,0,39.7c4.7,11.8,14.1,21.2,25.9,26c6.2,2.5,12.8,3.8,19.5,3.7c3.8,0,7.5-0.4,11.1-1.3
			c3.4-0.8,6.7-2.1,9.8-3.7c2.9-1.5,5.6-3.3,8.1-5.5c2.3-2,4.2-4.3,5.9-6.8l-7.9-5.6C232.2,1179.7,230.3,1182,228,1184z"/>
		<polygon class="st16" points="391.8,1103.2 382.2,1103.2 382.2,1197.7 435.8,1197.7 435.8,1188.8 391.8,1188.8 		"/>
		<polygon class="st16" points="481.2,1153 526.9,1153 526.9,1144.2 481.2,1144.2 481.2,1112 530.1,1112 530.1,1103.2 471.6,1103.2 
			471.6,1197.6 531.7,1197.6 531.7,1188.8 481.2,1188.8 		"/>
		<path class="st16" d="M615.2,1147.9v-0.3c4.8-0.9,9.2-3.6,12.3-7.4c2.9-3.8,4.5-8.5,4.3-13.3c0.1-3.9-0.7-7.7-2.5-11.2
			c-1.6-3-4-5.5-6.8-7.3c-3-1.9-6.3-3.3-9.7-4c-3.7-0.8-7.5-1.2-11.3-1.2h-28.1v94.4h28.8c7.6,0,13.6-1.1,18.1-3.2
			c4-1.7,7.5-4.3,10.4-7.5c2.2-2.5,3.8-5.5,4.7-8.7c0.6-2.2,1-4.4,1.1-6.7c0-6.9-1.9-12.5-5.7-16.6S621.8,1148.4,615.2,1147.9z
			 M582.9,1112L582.9,1112l18.4,0c4.5,0,8.1,0.6,10.8,1.9c2.4,1,4.4,2.6,6.1,4.6c1.3,1.6,2.2,3.4,2.7,5.3c0.3,1.4,0.5,2.7,0.6,4.1
			c0.2,5-2.1,9.8-6.2,12.8c-1.8,1.3-3.9,2.3-6.1,2.9c-2.2,0.6-4.6,0.9-6.9,0.9h-19.3V1112L582.9,1112L582.9,1112z M624.2,1179
			c-1.3,2.2-3.1,4.1-5.3,5.5c-2.4,1.5-5.1,2.7-7.9,3.3c-3.2,0.7-6.5,1.1-9.7,1.1h-18.4v-36.3l0,0h19.6c7.7,0,13.6,1.5,17.6,4.5
			s6,7.6,6,13.9C626.2,1173.8,625.5,1176.5,624.2,1179z"/>
		<polygon class="st16" points="573.3,1197.7 573.3,1197.6 573.3,1197.6 		"/>
		<path class="st16" d="M2768.2,1145c4.1-4.5,6.4-10.5,6.2-16.6c0-8.4-2.8-14.8-8.3-18.9c-5.6-4.2-13.1-6.3-22.7-6.3h-29.1v94.4h9.6
			v-43.9h16l25.9,43.9h11.7l-27.2-44.8C2758,1152.1,2764,1149.5,2768.2,1145z M2723.8,1145V1112h17.1c3.7-0.1,7.3,0.4,10.9,1.3
			c2.6,0.7,5,1.9,7.1,3.5c1.7,1.4,3,3.2,3.9,5.3c0.8,2,1.2,4.2,1.2,6.3c0,2.2-0.4,4.4-1.2,6.5c-0.8,2-2.2,3.8-3.9,5.2
			c-2.1,1.6-4.5,2.8-7.1,3.5c-3.5,1-7.2,1.4-10.9,1.3H2723.8z"/>
		<polygon class="st16" points="2622.1,1153 2622.1,1153 2667.8,1153 2667.8,1144.2 2622.1,1144.2 2622.1,1112 2671,1112 
			2671,1103.2 2612.5,1103.2 2612.5,1197.6 2672.6,1197.6 2672.6,1188.8 2622.1,1188.8 		"/>
		<polygon class="st16" points="2867.8,1103.2 2839.7,1147.8 2811.6,1103.2 2799.6,1103.2 2834.9,1157 2834.9,1197.6 2844.5,1197.6 
			2844.5,1157 2844.5,1157 2879.8,1103.2 		"/>
		<path class="st16" d="M3036.8,1115c-4.7-3.9-10.2-6.9-16-8.9c-5.7-1.9-11.7-2.9-17.7-2.9h-31.3v94.4h31.3c6,0,12-1,17.7-2.9
			c5.8-1.9,11.3-4.9,16-8.9c4.8-4,8.8-9.1,11.5-14.7c2.9-5.9,4.4-12.8,4.4-20.7c0.2-7.1-1.4-14.2-4.4-20.6
			C3045.6,1124.2,3041.7,1119.1,3036.8,1115z M3039.8,1164.6c-1.7,4.6-4.4,8.8-7.8,12.3c-3.8,3.8-8.3,6.7-13.2,8.7
			c-6,2.3-12.3,3.4-18.7,3.3h-18.7V1112v0h18.7c6.4-0.1,12.8,1,18.7,3.3c4.9,2,9.4,4.9,13.2,8.7c3.4,3.5,6.1,7.7,7.8,12.3
			C3043.2,1145.4,3043.2,1155.5,3039.8,1164.6z"/>
		<polygon class="st16" points="2536.1,1183.2 2535.8,1183.2 2505.8,1103.2 2495.2,1103.2 2531,1197.6 2540.6,1197.6 2577.4,1103.2 
			2567,1103.2 		"/>
		<path class="st16" d="M3122.9,1103.2l-41.1,94.4h11.2l10.4-24.8h48.3l10.4,24.8h11.2l-41.1-94.4H3122.9z M3107,1164l20.5-49.6
			l20.4,49.6H3107z"/>
		<polygon class="st16" points="2416.2,1153 2416.2,1153 2462,1153 2462,1144.2 2416.2,1144.2 2416.2,1112 2465.2,1112 
			2465.2,1103.2 2406.6,1103.2 2406.6,1197.6 2466.8,1197.6 2466.8,1188.8 2416.2,1188.8 		"/>
		<path class="st16" d="M3295.8,1186.2c-2.8-2.9-7.4-2.9-10.2-0.2c-0.1,0.1-0.1,0.1-0.2,0.2c-2.7,2.8-2.7,7.2,0,10
			c2.8,2.9,7.4,2.9,10.2,0.2c0.1-0.1,0.1-0.1,0.2-0.2C3298.5,1193.4,3298.5,1189,3295.8,1186.2L3295.8,1186.2z"/>
		<polygon class="st16" points="3252.5,1103.2 3224.4,1147.8 3196.2,1103.2 3184.2,1103.2 3219.6,1157 3219.6,1197.6 3229.2,1197.6 
			3229.2,1157 3229.2,1157 3264.5,1103.2 		"/>
		<path class="st16" d="M2102.8,1130.6c-4.7-11.8-14.1-21.2-25.9-26c-12.5-5-26.5-5-39.1,0c-11.8,4.8-21.2,14.2-25.9,26
			c-5,12.8-5,27,0,39.7c4.7,11.8,14.1,21.2,25.9,26c12.5,5,26.5,5,39.1,0c11.8-4.8,21.2-14.2,25.9-26
			C2107.7,1157.5,2107.8,1143.4,2102.8,1130.6L2102.8,1130.6z M2093.4,1166c-1.7,4.8-4.3,9.2-7.7,13c-3.4,3.8-7.6,6.8-12.2,8.9
			c-10.4,4.4-22.1,4.4-32.5,0c-4.6-2.1-8.8-5.1-12.2-8.9c-3.4-3.8-6-8.2-7.7-13c-3.5-10.1-3.5-21,0-31.1c1.7-4.8,4.3-9.2,7.7-13
			c3.4-3.8,7.6-6.8,12.2-8.9c10.4-4.5,22.1-4.5,32.5,0c4.6,2.1,8.8,5.1,12.2,8.9c3.4,3.8,6,8.2,7.7,13
			C2097,1145,2097.1,1155.9,2093.4,1166L2093.4,1166z"/>
		<path class="st16" d="M1637.4,1103.2v58.1c0.1,3.9-0.4,7.8-1.3,11.7c-0.7,2.9-1.9,5.7-3.5,8.2c-1.3,2-3,3.8-4.9,5.3
			c-1.7,1.2-3.5,2.2-5.5,3c-1.7,0.7-3.5,1.2-5.3,1.4c-1.4,0.2-2.9,0.3-4.3,0.3c-1.5,0-2.9-0.1-4.4-0.3c-1.8-0.3-3.6-0.7-5.3-1.4
			c-1.9-0.8-3.8-1.8-5.5-3c-2-1.4-3.6-3.2-4.9-5.3c-1.6-2.5-2.8-5.3-3.5-8.2c-1-3.8-1.4-7.7-1.3-11.7v-58.1h-9.6v59.2
			c0,4.2,0.5,8.4,1.4,12.5c0.9,4.4,2.7,8.5,5.3,12.2c2.7,3.9,6.3,7,10.5,9.3c4.4,2.4,10.2,3.7,17.3,3.7c7,0,12.8-1.2,17.3-3.7
			c4.2-2.2,7.8-5.4,10.6-9.3c2.5-3.7,4.3-7.8,5.3-12.2c0.9-4.1,1.4-8.3,1.4-12.5v-59.2h0H1637.4z"/>
		<path class="st16" d="M1757.8,1184c-2,1.8-4.2,3.2-6.7,4.3c-2.3,1-4.7,1.8-7.2,2.3c-2.4,0.4-4.9,0.7-7.4,0.7
			c-5.6,0.1-11.2-1-16.3-3.3c-4.6-2.1-8.8-5.1-12.2-8.9c-3.4-3.8-6-8.2-7.7-13c-3.6-10.1-3.6-21,0-31.1c1.7-4.8,4.3-9.2,7.7-13
			c3.4-3.8,7.6-6.8,12.2-8.9c5.1-2.3,10.7-3.4,16.3-3.3c2.5,0,5,0.4,7.5,1.1c2.4,0.7,4.8,1.6,7,2.8c2.1,1.1,4,2.4,5.8,4
			c1.5,1.3,2.9,2.9,4,4.5l8.4-6.3c-3.9-5.1-9.1-9.1-15.1-11.5c-5.6-2.3-11.6-3.4-17.6-3.5c-6.7-0.1-13.3,1.2-19.5,3.7
			c-11.8,4.8-21.2,14.2-25.9,26c-5,12.8-5,27,0,39.7c4.7,11.8,14.1,21.2,25.9,26c6.2,2.5,12.8,3.8,19.5,3.7c3.8,0,7.5-0.4,11.1-1.3
			c3.4-0.8,6.7-2.1,9.8-3.7c2.9-1.5,5.6-3.3,8.1-5.5c2.2-2,4.2-4.3,5.9-6.8l-7.9-5.6C1762,1179.7,1760,1182,1757.8,1184z"/>
		<path class="st16" d="M1521.8,1115c-4.7-3.9-10.2-6.9-16-8.9c-5.7-1.9-11.7-2.9-17.7-2.9h-31.3v94.4h31.3c6,0,12-1,17.7-2.9
			c5.8-1.9,11.3-4.9,16-8.9c4.8-4,8.8-9.1,11.5-14.7c2.9-5.9,4.4-12.8,4.4-20.7c0.2-7.1-1.4-14.2-4.4-20.6
			C1530.5,1124.2,1526.6,1119.1,1521.8,1115z M1524.8,1164.7c-1.7,4.6-4.4,8.8-7.8,12.3c-3.8,3.8-8.3,6.7-13.2,8.7
			c-6,2.3-12.3,3.4-18.7,3.3h-18.7v-76.8v0h18.7c6.4-0.1,12.8,1,18.7,3.3c4.9,2,9.4,4.9,13.2,8.7c3.4,3.5,6.1,7.7,7.8,12.3
			C1528.1,1145.4,1528.1,1155.5,1524.8,1164.7z"/>
		<path class="st16" d="M1838.5,1103.2l-41.1,94.4h11.2l10.4-24.8h48.3l10.4,24.8h11.2l-41.1-94.4H1838.5z M1822.6,1164l20.5-49.6
			l20.4,49.6H1822.6z"/>
		<polygon class="st16" points="1366,1153 1411.7,1153 1411.7,1144.2 1366,1144.2 1366,1112 1414.9,1112 1414.9,1103.2 
			1356.4,1103.2 1356.4,1197.6 1416.5,1197.6 1416.5,1188.8 1366,1188.8 		"/>
		<path class="st16" d="M2202.3,1145c4.1-4.5,6.4-10.5,6.2-16.6c0-8.4-2.8-14.8-8.3-18.9s-13.1-6.3-22.7-6.3h-29.1v94.4h9.6v-43.9
			h16l25.9,43.9h11.7l-27.2-44.8C2192.2,1152.1,2198.2,1149.5,2202.3,1145z M2158,1145V1112h17.1c3.7-0.1,7.3,0.4,10.9,1.3
			c2.6,0.7,5,1.9,7.1,3.5c1.7,1.4,3,3.2,3.9,5.3c0.8,2,1.2,4.2,1.2,6.3c0,2.2-0.4,4.4-1.2,6.5c-0.8,2-2.2,3.8-3.9,5.2
			c-2.1,1.6-4.5,2.8-7.1,3.5c-3.5,1-7.2,1.4-10.9,1.3H2158z"/>
		<path class="st16" d="M2292.2,1151.3c-3.7-2.1-7.6-3.7-11.7-4.8c-4-1.1-7.9-2.5-11.7-4.1c-3.3-1.4-6.3-3.3-8.9-5.8
			c-2.4-2.4-3.6-5.7-3.6-9.9c-0.1-2.7,0.5-5.3,1.7-7.7c1.1-2.1,2.7-3.9,4.6-5.3c2-1.4,4.1-2.4,6.5-3.1c2.4-0.7,4.9-1,7.3-1
			c8,0,14.1,3.1,18.3,9.2l8.4-6.5c-3.3-3.9-7.4-7-12.1-8.9c-8.3-3-17.3-3.4-25.7-0.9c-3.5,1-6.9,2.7-9.8,4.9
			c-2.9,2.2-5.3,5.1-6.9,8.4c-1.8,3.7-2.7,7.8-2.6,11.9c-0.1,3.7,0.6,7.4,2.1,10.9c1.3,2.8,3.1,5.2,5.5,7.2c2.3,1.9,4.9,3.5,7.7,4.7
			c2.9,1.2,5.9,2.4,8.9,3.3c3.1,1,6,2,8.9,2.9c2.7,0.9,5.3,2.1,7.7,3.7c2.2,1.4,4.1,3.3,5.5,5.5c1.5,2.5,2.2,5.3,2.1,8.2
			c0,2.6-0.6,5.1-1.9,7.3c-1.2,2.1-2.8,3.9-4.7,5.4c-1.9,1.5-4.1,2.6-6.4,3.3c-2.3,0.7-4.7,1.1-7.2,1.1c-4.5,0.1-8.9-1-12.9-3.1
			c-3.5-2-6.5-4.9-8.5-8.3l-8.8,6.3c3.3,4.7,7.9,8.5,13.3,10.7c5.2,2.2,10.8,3.3,16.5,3.3c3.8,0,7.6-0.6,11.1-1.9
			c3.6-1.2,7-3,10-5.3c3-2.3,5.4-5.3,7.2-8.6c1.9-3.6,2.8-7.5,2.7-11.5c0-5.7-1.2-10.2-3.6-13.5
			C2298.8,1156,2295.7,1153.3,2292.2,1151.3z"/>
		<polygon class="st16" points="1904.4,1112 1936,1112 1936,1197.6 1945.6,1197.6 1945.6,1112 1945.6,1112 1977.2,1112 
			1977.2,1103.2 1904.4,1103.2 		"/>
	</g>
</g>
</svg>
