<?xml version="1.0" encoding="UTF-8" standalone="no"?>
<svg
   xmlns:dc="http://purl.org/dc/elements/1.1/"
   xmlns:cc="http://creativecommons.org/ns#"
   xmlns:rdf="http://www.w3.org/1999/02/22-rdf-syntax-ns#"
   xmlns:svg="http://www.w3.org/2000/svg"
   xmlns="http://www.w3.org/2000/svg"
   xmlns:sodipodi="http://sodipodi.sourceforge.net/DTD/sodipodi-0.dtd"
   xmlns:inkscape="http://www.inkscape.org/namespaces/inkscape"
   version="1.1"
   x="0px"
   y="0px"
   viewBox="0 0 512 419.99999"
   enable-background="new 0 0 512 512"
   xml:space="preserve"
   id="svg14"
   sodipodi:docname="noun_Picture_800093.svg"
   inkscape:version="0.92.5 (2060ec1f9f, 2020-04-08)"
   width="512"
   height="420"><metadata
   id="metadata20"><rdf:RDF><cc:Work
       rdf:about=""><dc:format>image/svg+xml</dc:format><dc:type
         rdf:resource="http://purl.org/dc/dcmitype/StillImage" /><dc:title></dc:title></cc:Work></rdf:RDF></metadata><defs
   id="defs18" /><sodipodi:namedview
   pagecolor="#ffffff"
   bordercolor="#666666"
   borderopacity="1"
   objecttolerance="10"
   gridtolerance="10"
   guidetolerance="10"
   inkscape:pageopacity="0"
   inkscape:pageshadow="2"
   inkscape:window-width="1837"
   inkscape:window-height="966"
   id="namedview16"
   showgrid="false"
   inkscape:pagecheckerboard="true"
   inkscape:zoom="0.7375"
   inkscape:cx="-71.095304"
   inkscape:cy="274.55361"
   inkscape:window-x="78"
   inkscape:window-y="27"
   inkscape:window-maximized="0"
   inkscape:current-layer="svg14" /><g
   id="g8"
   style="fill:#ffffff;fill-opacity:1"
   transform="translate(1.3559322,-46.440674)"><path
     d="M 484.6,52.8 H 27.4 C 13.4,52.8 2,64.2 2,78.2 v 355.6 c 0,14 11.4,25.4 25.4,25.4 h 457.2 c 14,0 25.4,-11.4 25.4,-25.4 V 78.2 c 0,-14 -11.4,-25.4 -25.4,-25.4 z M 459.2,408.4 H 52.8 V 103.6 h 406.4 z"
     id="path2"
     style="fill:#ffffff;fill-opacity:1"
     inkscape:connector-curvature="0" /><path
     d="m 433.8,377.9 v -45.1 c -0.1,-0.5 -0.3,-1.3 -0.4,-1.8 l -45.8,-91.4 c -1.9,-3.7 -7.2,-3.7 -9.1,0 l -20.9,41.7 -46.3,-92.5 c -1.9,-3.7 -7.2,-3.7 -9.1,0 l -67.7,135.5 c -1.7,3.5 -6.6,3.8 -8.8,0.5 L 158.4,262 c -1.9,-2.9 -6.2,-3 -8.3,-0.2 L 78.2,357.7 V 383 h 350.5 c 2.8,0 5.1,-2.3 5.1,-5.1 z"
     id="path4"
     style="fill:#ffffff;fill-opacity:1"
     inkscape:connector-curvature="0" /><path
     d="m 141.7,205.2 c 21,0 38.1,-17.1 38.1,-38.1 0,-21 -17.1,-38.1 -38.1,-38.1 -21,0 -38.1,17.1 -38.1,38.1 0,21 17.1,38.1 38.1,38.1 z"
     id="path6"
     style="fill:#ffffff;fill-opacity:1"
     inkscape:connector-curvature="0" /></g><text
   x="-0.32369524"
   y="401.37335"
   font-size="5px"
   font-weight="bold"
   id="text10"
   style="font-weight:bold;font-size:29.09506798px;font-family:'Helvetica Neue', Helvetica, Arial-Unicode, Arial, Sans-serif;fill:#ffffff;fill-opacity:1;stroke-width:5.8190136"
   transform="scale(0.83696282,1.1947962)">Created by ProSymbols</text>

<text
   x="-0.32369524"
   y="430.46832"
   font-size="5px"
   font-weight="bold"
   id="text12"
   style="font-weight:bold;font-size:29.09506798px;font-family:'Helvetica Neue', Helvetica, Arial-Unicode, Arial, Sans-serif;fill:#ffffff;fill-opacity:1;stroke-width:5.8190136"
   transform="scale(0.83696282,1.1947962)">from the Noun Project</text>

</svg>