<?xml version="1.0" encoding="UTF-8" standalone="no"?>
<svg
   xmlns:dc="http://purl.org/dc/elements/1.1/"
   xmlns:cc="http://creativecommons.org/ns#"
   xmlns:rdf="http://www.w3.org/1999/02/22-rdf-syntax-ns#"
   xmlns:svg="http://www.w3.org/2000/svg"
   xmlns="http://www.w3.org/2000/svg"
   xmlns:sodipodi="http://sodipodi.sourceforge.net/DTD/sodipodi-0.dtd"
   xmlns:inkscape="http://www.inkscape.org/namespaces/inkscape"
   version="1.1"
   x="0px"
   y="0px"
   viewBox="0 0 24 30"
   enable-background="new 0 0 24 24"
   xml:space="preserve"
   id="svg14"
   sodipodi:docname="noun_clipboard_332274.svg"
   inkscape:version="0.92.5 (2060ec1f9f, 2020-04-08)"><metadata
     id="metadata20"><rdf:RDF><cc:Work
         rdf:about=""><dc:format>image/svg+xml</dc:format><dc:type
           rdf:resource="http://purl.org/dc/dcmitype/StillImage" /></cc:Work></rdf:RDF></metadata><defs
     id="defs18" /><sodipodi:namedview
     pagecolor="#ffffff"
     bordercolor="#666666"
     borderopacity="1"
     objecttolerance="10"
     gridtolerance="10"
     guidetolerance="10"
     inkscape:pageopacity="0"
     inkscape:pageshadow="2"
     inkscape:window-width="532"
     inkscape:window-height="564"
     id="namedview16"
     showgrid="false"
     inkscape:zoom="7.8666667"
     inkscape:cx="14.224576"
     inkscape:cy="9.9152542"
     inkscape:window-x="0"
     inkscape:window-y="27"
     inkscape:window-maximized="0"
     inkscape:current-layer="svg14" /><g
     id="g8"><path
       fill="#000000"
       d="M19,4h-3V3h-3c0-0.6-0.4-1-1-1c-0.6,0-1,0.4-1,1H8v1H5C4.4,4,4,4.4,4,5v16c0,0.6,0.4,1,1,1h14   c0.6,0,1-0.4,1-1V5C20,4.4,19.6,4,19,4z M18,20H6V6h2v1h8V6h2V20z"
       id="path2" /><rect
       x="8"
       y="10"
       fill="#000000"
       width="8"
       height="2"
       id="rect4" /><rect
       x="8"
       y="14"
       fill="#000000"
       width="8"
       height="2"
       id="rect6" /></g><text
     x="0.033311915"
     y="35.00325"
     font-size="5px"
     font-weight="bold"
     id="text10"
     transform="scale(0.94803461,1.0548138)"
     style="font-weight:bold;font-size:2.89464664px;font-family:'Helvetica Neue', Helvetica, Arial-Unicode, Arial, Sans-serif;fill:#000000;stroke-width:0.57892931">Created by Creative Stall</text>
<text
     x="0.033311915"
     y="38.500462"
     font-size="5px"
     font-weight="bold"
     id="text12"
     transform="scale(0.94803459,1.0548138)"
     style="font-weight:bold;font-size:2.89464664px;font-family:'Helvetica Neue', Helvetica, Arial-Unicode, Arial, Sans-serif;fill:#000000;stroke-width:0.57892931">from the Noun Project</text>
</svg>