<svg xmlns="http://www.w3.org/2000/svg" data-name="Layer 1" viewBox="0 0 64 80" x="0px" y="0px"><path d="M3,55v2H7v4H9V57H19v4h2V57H31v4h2V57H43v4h2V57H55v4h2V57h4V55H57V45h4V43H57V33h4V31H57V21h4V19H57V9h4V7H57V3H55V7H45V3H43V7H33V3H31V7H21V3H19V7H9V3H7V7H3V9H7V19H3v2H7V31H3v2H7V43H3v2H7V55Zm18,0V45H31V55ZM33,31V21H43V31Zm10,2V43H33V33ZM31,31H21V21H31Zm0,2V43H21V33Zm2,22V45H43V55Zm22,0H45V45H55Zm0-12H45V33H55Zm0-12H45V21H55ZM55,9V19H45V9ZM43,9V19H33V9ZM31,9V19H21V9ZM9,9H19V19H9ZM9,21H19V31H9ZM9,33H19V43H9ZM9,45H19V55H9Z"/><text x="0" y="79" fill="#000000" font-size="5px" font-weight="bold" font-family="'Helvetica Neue', Helvetica, Arial-Unicode, Arial, Sans-serif">Created by Studio 365</text><text x="0" y="84" fill="#000000" font-size="5px" font-weight="bold" font-family="'Helvetica Neue', Helvetica, Arial-Unicode, Arial, Sans-serif">from the Noun Project</text></svg>