<svg xmlns="http://www.w3.org/2000/svg" viewBox="0 0 858.5 230.04"><defs><style>.cls-1{fill:#ff544b;}</style></defs><g id="Layer_2" data-name="Layer 2"><g id="Layer_1-2" data-name="Layer 1"><path class="cls-1" d="M216.12,8.28a59.23,59.23,0,0,0-7.3-3,112.83,112.83,0,0,0-11.53-3.4c-23.58-5.43-75.49-.7-85.1,40a30.64,30.64,0,0,0-.55,3.09l-4.14,9.46h0a14,14,0,0,1-1.93,4.15l-1.93,2.17a8.7,8.7,0,0,1-3.46,1.8c-4.93.45-5.27-1.86-5.27-1.86l-.24-1.76c.49-3.43,1.17-6.63,0-10.75C88.58,25.73,56.22,16,32.35,22.67a101.65,101.65,0,0,0-14,5.52C14.81,29.77,10.82,31,7.13,30a1.25,1.25,0,0,0-1.49,1.67A68.19,68.19,0,0,0,19.21,51.43a61.59,61.59,0,0,0,6,5.2c8.35,6.38,18.26,12.51,29,13.86a57.87,57.87,0,0,0,22.64-2.15c1.29-.36,3.79-1.19,5.74-2,.33-.13,8.76,1.24,12.25,6.8,4.49,44-4.94,56.69-13.22,59.81-13.48-3.43-16.66-12.5-37.69-12.5-26,0-43.9,16.88-43.9,36.27C0,199,51.36,219.87,94.21,219.87s96.07-23.34,96.07-57.68c0-33.56-25.75-40.23-38-40.23-21.22,0-30.72,7.86-46.15,11-3.67-2.61-3.66-4.23-3.4-6.34,3.76-31.23,2.45-47,.89-54.59a13.44,13.44,0,0,1,.54-3l3.44-2.3,4.23-3.52,1.26-1.34a25.22,25.22,0,0,1,1.81-2.61,14.44,14.44,0,0,0,1.28,1.32,34.67,34.67,0,0,0,13.16,7,38,38,0,0,0,4,1c14.71,2.76,30-2.55,41.89-10.87A94.93,94.93,0,0,0,199.9,32.1c3.74-5.65,7.53-12.74,14.34-15.26l1-.36C219.07,15.26,219.67,10.06,216.12,8.28ZM58.46,146.3c-1.38.32-3.34-.5-4.85-1.09-.88-.35-1.78-.67-2.67-1a24,24,0,0,0-2.78-.69c-.7-.14-1.4-.23-2.08-.3-2.51-.24-4.86,0-7.37-.28a18.05,18.05,0,0,1-2.83-.49,12,12,0,0,1-1.8-.63,5.44,5.44,0,0,1-3.12-3.6,3.21,3.21,0,0,1,.46-2.7,4.47,4.47,0,0,1,.94-.9,9.22,9.22,0,0,1,5.29-1.24,25.61,25.61,0,0,1,5.59.73,37.94,37.94,0,0,1,6.52,2.08c.67.28,1.33.59,2,.92a27.91,27.91,0,0,1,6.34,4.22,7.46,7.46,0,0,1,1.82,2.25A2,2,0,0,1,58.46,146.3Z"/><path class="cls-1" d="M266.64,148.27a6.94,6.94,0,1,0,0-13.87h-12.9V115.24a8.23,8.23,0,0,0-16.45,0V134.4h-2.71a6.94,6.94,0,1,0,0,13.87h2.71v40.6c0,15.45,8.56,20.65,20.65,20.65a33.51,33.51,0,0,0,11.28-1.86,6.94,6.94,0,0,0,4.35-6.27,6.87,6.87,0,0,0-6.93-6.66,40.33,40.33,0,0,1-4.07.39c-5.58,0-8.83-2.52-8.83-8.79V148.27Z"/><path class="cls-1" d="M296,137.49a8,8,0,0,0-8.16,8.13v55.71a8.23,8.23,0,0,0,16.45,0V145.62a8.16,8.16,0,0,0-8.29-8.13"/><path class="cls-1" d="M359.56,137.15c-11.14,0-17.79,5.74-22.42,12.27v-3.48a8.16,8.16,0,0,0-8.29-8.12,8,8,0,0,0-8.15,8.12v55.72a8.22,8.22,0,0,0,16.44,0V169.27c0-10.93,6.66-17.46,16.17-17.46,9.78,0,15.35,6.27,15.35,17.2v32.65a8.05,8.05,0,0,0,8.3,8,7.93,7.93,0,0,0,8.15-8V164.08c0-16.26-9.38-26.93-25.55-26.93"/><path class="cls-1" d="M458.32,137.16c-4.22,0-6.52,2.79-7.88,6.13L432.5,190.06l-19.3-46.77c-1.49-3.74-3.8-6.13-8-6.13A7.82,7.82,0,0,0,397,145a11,11,0,0,0,1,3.86l26.64,58.38-.54,1.47c-2.5,5-4.92,7.1-9.1,7.4a9.14,9.14,0,0,0-17.52,3.45,8.78,8.78,0,0,0,3.43,6.93c.07.07.13.11.2.17a7.75,7.75,0,0,0,.66.46,8.51,8.51,0,0,0,1.07.57l.57.22.31.12a29.56,29.56,0,0,0,11.41,2c11.55,0,18.07-5.32,24.18-19.72l26.23-61.7a14.34,14.34,0,0,0,.68-3.87,7.69,7.69,0,0,0-7.88-7.59"/><path class="cls-1" d="M536.44,173.28c0,13.85-9.23,22.51-20.51,22.51S495,186.73,495,173.28V173c0-13.45,9.79-22.52,20.93-22.52s20.51,8.93,20.51,22.52Zm-16.57-36.8c-11.68,0-19.16,5.87-24.46,13.21V115.21a8,8,0,0,0-8.29-8,7.92,7.92,0,0,0-8.15,8V201a8.22,8.22,0,0,0,16.44,0V197.4c5,6.53,12.5,12.38,24.46,12.38,17,0,33.29-13.19,33.29-36.5V173c0-23.45-16.44-36.52-33.29-36.52"/><path class="cls-1" d="M587.2,153.72c9-6,18.81-2.82,25.7,5.14l-30.34,20.47c-5.08-9.84-3.64-20,4.64-25.61m42,19.51a6.05,6.05,0,0,0-2.63,3.55,25.23,25.23,0,0,1-10.45,14.49c-8.73,5.89-19.26,5.23-27.33-3.23l37-25a7.46,7.46,0,0,0,1.92-10.68c-9.39-13.39-29.31-22.28-48.12-9.6-16.91,11.41-19.34,33.11-7.71,49.69l.16.21c12.54,17.91,34.3,21.18,51.43,9.63,9.18-6.19,13.82-13.69,15.88-22a6.88,6.88,0,0,0-1.06-5.27,6.54,6.54,0,0,0-9.14-1.76"/><path class="cls-1" d="M696.78,183c0,8.93-8.3,15.06-19.17,15.06-7.88,0-14-3.87-14-10.66v-.27c0-7.33,6.25-11.72,16.85-11.72a46.63,46.63,0,0,1,16.31,2.79Zm-15.91-46a59.25,59.25,0,0,0-22.41,3.88,8.86,8.86,0,0,0-4.75,4.66,8.58,8.58,0,0,0-.77,3.58,9.12,9.12,0,0,0,17.82,2.53,48.88,48.88,0,0,1,7.94-.65c11.55,0,17.8,5.32,17.8,15.32v1.74a60.72,60.72,0,0,0-19.29-2.94c-17.53,0-29.63,7.46-29.63,22.66v.26c0,14.13,12,21.72,25.42,21.72,11,0,18.48-4.52,23.37-10.25v2.66c0,3.6,3.26,6.8,8,6.8a7.76,7.76,0,0,0,8-7.74V166.62c0-9.21-2.44-16.67-7.74-21.73-5-5.07-13-7.87-23.79-7.87"/><path class="cls-1" d="M765.85,137.15c-11.14,0-17.8,5.74-22.42,12.27v-3.48a8.16,8.16,0,0,0-8.29-8.12,8,8,0,0,0-8.16,8.12v55.72a8.23,8.23,0,0,0,16.45,0V169.27c0-10.93,6.65-17.46,16.17-17.46,9.78,0,15.35,6.27,15.35,17.2v32.65a8.05,8.05,0,0,0,8.29,8,7.94,7.94,0,0,0,8.16-8V164.08c0-16.26-9.38-26.93-25.55-26.93"/><path class="cls-1" d="M836.22,166.75c-8.43-2.67-16.18-4.8-16.18-10v-.27c0-4,3.67-6.93,10.06-6.93a30.22,30.22,0,0,1,8.74,1.5A9.11,9.11,0,0,0,857,149.9c0-.08,0-.16,0-.25s0-.15,0-.24a6.77,6.77,0,0,0-.58-2.53,8.85,8.85,0,0,0-2.93-4c-.13-.11-.26-.22-.4-.32s-.22-.13-.33-.21-.31-.21-.47-.29a46.33,46.33,0,0,0-21.74-5.32c-14.27,0-25.55,8.13-25.55,21.46v.26c0,13.47,11.82,17.73,22.42,20.66,8.43,2.53,16,4.39,16,9.86v.27c0,4.66-4.08,7.6-11.15,7.6a34.25,34.25,0,0,1-12.62-2.6,9.12,9.12,0,0,0-18.23.15c0,.1,0,.22,0,.32s0,.22,0,.34a5.59,5.59,0,0,0,.52,2.17,9,9,0,0,0,3.41,4.5l.09.07v0c.24.17.47.32.68.44,8.29,5.59,16.64,7.38,25.74,7.38,15,0,26.64-7.33,26.64-22.13v-.26c0-12.66-11.82-17.33-22.28-20.52"/><path class="cls-1" d="M296.06,107.24a8.95,8.95,0,1,0,9.12,8.94,9,9,0,0,0-9.12-8.94"/></g></g></svg>