<svg xmlns:dc="http://purl.org/dc/elements/1.1/" xmlns:cc="http://creativecommons.org/ns#" xmlns:rdf="http://www.w3.org/1999/02/22-rdf-syntax-ns#" xmlns:svg="http://www.w3.org/2000/svg" xmlns="http://www.w3.org/2000/svg" xmlns:sodipodi="http://sodipodi.sourceforge.net/DTD/sodipodi-0.dtd" xmlns:inkscape="http://www.inkscape.org/namespaces/inkscape" viewBox="0 0 12.7 15.875" version="1.1" x="0px" y="0px"><g transform="translate(0,-284.29998)"><path style="" d="m 3.6291357,291.5208 v -1.80868 a 0.06905283,0.06905283 0 0 1 0.068707,-0.069 h 4.3295178 a 1.9805166,1.9805166 0 0 1 0,3.96102 H 3.6978431 v 2.16787 h 4.3295178 a 4.1483817,4.1483817 0 0 0 0,-8.29676 H 3.6978431 a 0.06905283,0.06905283 0 0 1 -0.068707,-0.069 v -1.80867 a 0.06905283,0.06905283 0 0 0 -0.1183882,-0.0488 l -2.96139485,2.96166 a 0.06905283,0.06905283 0 0 0 0,0.0977 l 2.96139485,2.96166 a 0.06905283,0.06905283 0 0 0 0.1183882,-0.0488 z" fill="#000000" stroke="none"/></g><text x="0" y="27.7" fill="#000000" font-size="5px" font-weight="bold" font-family="'Helvetica Neue', Helvetica, Arial-Unicode, Arial, Sans-serif">Created by Phạm Thanh Lộc</text><text x="0" y="32.7" fill="#000000" font-size="5px" font-weight="bold" font-family="'Helvetica Neue', Helvetica, Arial-Unicode, Arial, Sans-serif">from the Noun Project</text></svg>